<svg xmlns="http://www.w3.org/2000/svg" xmlns:xlink="http://www.w3.org/1999/xlink" viewBox="0 0 1189.2 761.41">
  <script xlink:href="./index.js" />
  <defs>
    <style>
      .cls-1, .cls-3, .cls-5, .cls-7, .cls-8 {
        fill: none;
      }

      .cls-1 {
        stroke: #09f;
        stroke-width: 5px;
        opacity: 0.75;
      }

      .cls-1, .cls-2, .cls-3, .cls-4, .cls-5, .cls-6, .cls-7, .cls-8 {
        stroke-miterlimit: 10;
      }

      .cls-2 {
        fill: red;
        opacity: 0.18;
      }

      .cls-2, .cls-3 {
        stroke: red;
      }

      .cls-2, .cls-3, .cls-4, .cls-5, .cls-6, .cls-7 {
        stroke-width: 4px;
      }

      .cls-4 {
        fill: #ff0;
      }

      .cls-4, .cls-5 {
        stroke: #ff0;
      }

      .cls-4, .cls-6 {
        opacity: 0.2;
      }

      .cls-6, .cls-7 {
        stroke: #000;
      }

      .cls-8 {
        stroke: #666;
        stroke-width: 3px;
      }

      #filled, #filled-2, #filled-3 {
        cursor: pointer;
      }
    </style>
  </defs>
  <title>campus_library_map</title>
  <g id="Map">
    <image width="4955" height="3146" transform="translate(0 6.37) scale(0.24)" xlink:href="../campus_library_map.png"/>
  </g>
  <g id="Walkways">
    <polyline class="cls-1" points="700.99 361.1 697.46 370.29 697.46 380.53 695.51 386.87 675.52 409.29 622.39 409.29 622.39 440.47 622.39 457.06 622.39 468.27 617.03 474.61 612.16 477.53 587.3 490.63 581.45 495.08 540.99 495.08 531.73 500.44 523.45 507.75 518.08 516.06 518.08 534.08 515.16 542.22 508.8 542.22"/>
    <polyline class="cls-1" points="695.51 386.87 735.09 386.87 748.78 386.87 752.89 375.4 752.89 367.87 748.78 361.1"/>
    <polyline class="cls-1" points="790.08 371.1 790.08 279.94 786.24 274.27 779.65 267.52 777.71 259.27 779.65 251.22 777.71 240.74 775.76 234.91 770.33 234.91"/>
    <polyline class="cls-1" points="912.25 303.01 909.48 309.63 909.48 332.56 909.48 341.68 880.3 371.38 868.35 380.77 855.54 381.63 845.29 376.85 838.46 373.99 831.91 370.81 824.51 369.68 815.98 368.82 808.86 366.83 798.9 372.81 792.35 376.22 790.08 371.1 787.19 373.99 783.8 381.93 779.27 386.87 772.75 386.87 765.22 386.87 748.78 386.87"/>
    <polyline class="cls-1" points="906.23 279.06 909.48 269.43 918 263.84 925.49 259.27 928.7 251.77 928.7 242.67 928.7 226.62 934.05 224.48 966.69 224.48"/>
    <polyline class="cls-1" points="450.38 576.54 473.92 581.35 489.44 583.49 504.95 583.49 514.05 572.58 514.05 553.53 508.8 548.47"/>
    <polyline class="cls-1" points="488.37 608.64 496.93 602.22 500.67 594.2 504.95 583.49"/>
  </g>
  <g id="Libraries">
    <g id="mckeldin">
      <polygon id="filled" class="cls-2" points="503.14 574.43 503.14 550.32 508.94 550.32 508.94 538.42 503.14 538.42 503.14 513.7 473.85 513.7 473.85 521.94 446.38 521.94 446.38 568.07 475.07 568.07 475.07 574.43 503.14 574.43" onclick="switchMap('mck-floor1-01.svg'); switchInfo('McKeldin Library', 'Description');"/>
      <polygon class="cls-3" points="503.14 574.43 503.14 550.32 508.94 550.32 508.94 538.42 503.14 538.42 503.14 513.7 473.85 513.7 473.85 521.94 446.38 521.94 446.38 568.07 475.07 568.07 475.07 574.43 503.14 574.43"/>
    </g>
    <g id="hornbake">
      <polygon id="filled-2" data-name="filled" class="cls-4" points="703.41 317.83 703.41 380.88 745.78 380.88 745.78 317.83 738.37 317.83 738.01 311.47 709.06 311.47 709.06 317.83 703.41 317.83" onclick="switchMap('hbk_groundfloor-01.svg'); switchInfo('Hornbake Library', 'This library is the home of University Archives and Special Collections. For most cases, permission is required to check out from this library. The ground floor houses the Library Media Services. \n\nPhone: (301) 314-2710 \nParking: Vehicles with state issued disabled driver tags or stickers may park in the designated spaces on level G, 1, 2 and 3 in Regents Drive Parking Garage at no charge. \n\nIn Nonprint Media Services, (301-405-9236) there are automatic doors, wheelchair-accessible stations for videodisc, videotape, audio cassette, dial access and internet access. Dial access stations with amplifiers and closed caption decoders are also available.');"/>
      <polygon class="cls-5" points="703.41 317.83 703.41 380.88 745.78 380.88 745.78 317.83 738.37 317.83 738.01 311.47 709.06 311.47 709.06 317.83 703.41 317.83"/>
    </g>
    <g id="stem_library" data-name="stem library">
      <polygon id="filled-3" data-name="filled" class="cls-6" points="904.23 267.29 870.58 267.29 870.58 282.58 873.64 282.58 873.64 287.17 880.67 287.17 883.73 282.58 889.24 282.58 889.24 298.18 904.23 298.18 904.23 267.29" onclick="switchMap('stem_ground_floor-v2.svg'); switchInfo('STEM Library', 'Phone: (301) 405-9157; Parking: 2 reserved spaces in Lot E and EE behind the building; Location: Math Building; Entrance: From Lot E automatic doors. Elevator to the left of the doors goes to Library level (1st floor).');"/>
      <polygon class="cls-7" points="904.23 267.29 870.58 267.29 870.58 282.58 873.64 282.58 873.64 287.17 880.67 287.17 883.73 282.58 889.24 282.58 889.24 298.18 904.23 298.18 904.23 267.29"/>
    </g>
    <g id="other_libraries" data-name="other libraries">
      <rect class="cls-8" x="263.31" y="669.49" width="59.49" height="26.96"/>
      <polygon class="cls-8" points="334.42 630.91 334.42 585.34 306.54 585.34 306.54 600.24 258.66 600.7 258.66 630.91 334.42 630.91"/>
      <polygon class="cls-8" points="147.58 117.8 147.58 109.43 159.2 109.43 161.06 117.8 161.06 142.43 139.68 142.43 134.1 139.7 134.1 135.46 131.78 109.43 134.84 108.24 139.56 111.63 139.18 116.35 147.58 117.8"/>
    </g>
  </g>
</svg>
