<svg xmlns="http://www.w3.org/2000/svg" xmlns:xlink="http://www.w3.org/1999/xlink" viewBox="0 0 1189.2 755.04">
  <defs>
    <style>
      .cls-1, .cls-2, .cls-3, .cls-4, .cls-5 {
        fill: none;
        stroke-miterlimit: 10;
      }

      .cls-1 {
        stroke: #09f;
        stroke-width: 5px;
        opacity: 0.75;
      }

      .cls-2 {
        stroke: red;
      }

      .cls-2, .cls-3, .cls-4 {
        stroke-width: 4px;
      }

      .cls-3 {
        stroke: #ff0;
      }

      .cls-4 {
        stroke: #000;
      }

      .cls-5 {
        stroke: #666;
        stroke-width: 3px;
      }
    </style>
  </defs>
  <title>campus_library_map</title>
  <g id="Map">
    <image width="4955" height="3146" transform="scale(0.24)" xlink:href="campus_library_map.png"/>
  </g>
  <g id="Walkways">
    <polyline class="cls-1" points="700.99 354.73 697.46 363.92 697.46 374.16 695.51 380.5 675.52 402.92 622.39 402.92 622.39 434.1 622.39 450.69 622.39 461.9 617.03 468.24 612.16 471.16 587.3 484.25 581.45 488.71 540.99 488.71 531.73 494.07 523.45 501.38 518.08 509.69 518.08 527.71 515.16 535.85 508.8 535.85"/>
    <polyline class="cls-1" points="695.51 380.5 735.09 380.5 748.78 380.5 752.89 369.03 752.89 361.5 748.78 354.73"/>
    <polyline class="cls-1" points="790.08 364.73 790.08 273.57 786.24 267.9 779.65 261.15 777.71 252.9 779.65 244.84 777.71 234.37 775.76 228.54 770.33 228.54"/>
    <polyline class="cls-1" points="912.25 296.63 909.48 303.25 909.48 326.19 909.48 335.31 880.3 365.01 868.35 374.4 855.54 375.26 845.29 370.48 838.46 367.62 831.91 364.44 824.51 363.3 815.98 362.45 808.86 360.46 798.9 366.44 792.35 369.85 790.08 364.73 787.19 367.62 783.8 375.55 779.27 380.5 772.75 380.5 765.22 380.5 748.78 380.5"/>
    <polyline class="cls-1" points="906.23 272.69 909.48 263.05 918 257.47 925.49 252.9 928.7 245.4 928.7 236.3 928.7 220.25 934.05 218.11 966.69 218.11"/>
    <polyline class="cls-1" points="450.38 570.17 473.92 574.98 489.44 577.12 504.95 577.12 514.05 566.21 514.05 547.16 508.8 542.1"/>
    <polyline class="cls-1" points="488.37 602.27 496.93 595.85 500.67 587.82 504.95 577.12"/>
  </g>
  <g id="Libraries">
    <g id="mckeldin">
      <polygon class="cls-2" points="503.14 568.06 503.14 543.95 508.94 543.95 508.94 532.05 503.14 532.05 503.14 507.33 473.85 507.33 473.85 515.57 446.38 515.57 446.38 561.7 475.07 561.7 475.07 568.06 503.14 568.06"/>
    </g>
    <g id="hornbake">
      <polygon class="cls-3" points="703.41 311.46 703.41 374.51 745.78 374.51 745.78 311.46 738.37 311.46 738.01 305.1 709.06 305.1 709.06 311.46 703.41 311.46"/>
    </g>
    <g id="stem_library" data-name="stem library">
      <polygon class="cls-4" points="904.23 260.92 870.58 260.92 870.58 276.21 873.64 276.21 873.64 280.8 880.67 280.8 883.73 276.21 889.24 276.21 889.24 291.81 904.23 291.81 904.23 260.92"/>
    </g>
    <g id="other_libraries" data-name="other libraries">
      <rect class="cls-5" x="263.31" y="663.12" width="59.49" height="26.96"/>
      <polygon class="cls-5" points="334.42 624.54 334.42 578.97 306.54 578.97 306.54 593.87 258.66 594.33 258.66 624.54 334.42 624.54"/>
      <polygon class="cls-5" points="147.58 111.42 147.58 103.06 159.2 103.06 161.06 111.42 161.06 136.06 139.68 136.06 134.1 133.33 134.1 129.09 131.78 103.06 134.84 101.87 139.56 105.26 139.18 109.98 147.58 111.42"/>
    </g>
  </g>
</svg>
