<svg xmlns="http://www.w3.org/2000/svg" xmlns:xlink="http://www.w3.org/1999/xlink" viewBox="0 0 648 648">
  <script xlink:href="./index.js" />
  <defs>
    <style>
      @import url("https://use.typekit.net/bqr7aly.css");
      .cls-1, .cls-2, .cls-4, .cls-6 {
        fill: none;
      }

      .cls-2 {
        stroke: #231f20;
        stroke-linejoin: round;
        stroke-width: 0.3px;
      }

      .cls-3 {
        fill: #fff;
        opacity: 0.5;
      }

      .cls-4, .cls-45, .cls-46, .cls-5, .cls-54, .cls-6, .cls-8, .cls-9 {
        stroke: #000;
      }

      .cls-14, .cls-17, .cls-4, .cls-45, .cls-46, .cls-5, .cls-51, .cls-54, .cls-6, .cls-8, .cls-9 {
        stroke-miterlimit: 10;
      }

      .cls-4, .cls-5 {
        stroke-width: 4px;
      }

      .cls-5 {
        opacity: 0.7;
        fill: url(#Diagonal_Lines);
      }

      .cls-13, .cls-7 {
        fill: #989898;
      }

      .cls-46, .cls-7, .cls-8 {
        opacity: 0.4;
      }

      .cls-14, .cls-16, .cls-17, .cls-46, .cls-51, .cls-8 {
        fill: #0060ff;
      }

      .cls-8 {
        stroke-width: 0.47px;
      }

      .cls-11, .cls-45, .cls-9 {
        fill: #ff0;
      }

      .cls-10, .cls-11, .cls-54, .cls-9 {
        opacity: 0.3;
      }

      .cls-10 {
        fill: #00caff;
      }

      .cls-12, .cls-15 {
        fill: red;
      }

      .cls-12, .cls-45 {
        opacity: 0.2;
      }

      .cls-14, .cls-17 {
        font-size: 9px;
      }

      .cls-14, .cls-17, .cls-51 {
        stroke: #0060ff;
      }

      .cls-14, .cls-46, .cls-51 {
        stroke-width: 0.5px;
      }

      .cls-14, .cls-17, .cls-18, .cls-32, .cls-41, .cls-47, .cls-51 {
        font-family: myriad-pro, sans-serif;
      }

      .cls-17 {
        stroke-width: 0.38px;
      }

      .cls-18, .cls-51 {
        font-size: 12px;
      }

      .cls-19 {
        letter-spacing: 0em;
      }

      .cls-20 {
        letter-spacing: 0.01em;
      }

      .cls-21 {
        letter-spacing: -0.01em;
      }

      .cls-22 {
        letter-spacing: 0.01em;
      }

      .cls-23 {
        letter-spacing: 0em;
      }

      .cls-24 {
        letter-spacing: 0em;
      }

      .cls-25 {
        letter-spacing: -0.01em;
      }

      .cls-26 {
        letter-spacing: -0.01em;
      }

      .cls-27 {
        letter-spacing: 0.03em;
      }

      .cls-28 {
        letter-spacing: 0.01em;
      }

      .cls-29 {
        letter-spacing: -0.01em;
      }

      .cls-30 {
        letter-spacing: 0.02em;
      }

      .cls-31 {
        letter-spacing: -0.01em;
      }

      .cls-32 {
        font-size: 10px;
      }

      .cls-33 {
        letter-spacing: 0.01em;
      }

      .cls-34 {
        letter-spacing: 0em;
      }

      .cls-35 {
        letter-spacing: 0em;
      }

      .cls-36 {
        letter-spacing: 0em;
      }

      .cls-37 {
        letter-spacing: -0.01em;
      }

      .cls-38 {
        letter-spacing: 0.02em;
      }

      .cls-39 {
        letter-spacing: 0.01em;
      }

      .cls-40 {
        letter-spacing: 0em;
      }

      .cls-41 {
        font-size: 18px;
      }

      .cls-42 {
        letter-spacing: -0.01em;
      }

      .cls-43 {
        letter-spacing: -0.02em;
      }

      .cls-44 {
        letter-spacing: 0.01em;
      }

      .cls-45 {
        stroke-width: 0.21px;
      }

      .cls-47 {
        font-size: 14px;
      }

      .cls-48 {
        letter-spacing: -0.01em;
      }

      .cls-49 {
        letter-spacing: -0.01em;
      }

      .cls-50 {
        letter-spacing: 0em;
      }

      .cls-52 {
        letter-spacing: 0em;
      }

      .cls-53 {
        letter-spacing: 0em;
      }

      .cls-54 {
        fill: #666;
        stroke-width: 0.15px;
      }

      .cls-55 {
        letter-spacing: 0em;
      }

      #O, #X {
        cursor: pointer;
      }
    </style>
    <pattern id="Diagonal_Lines" data-name="Diagonal Lines" width="72" height="72" patternUnits="userSpaceOnUse" viewBox="0 0 72 72">
      <rect class="cls-1" width="72" height="72"/>
      <g>
        <line class="cls-2" x1="64.52" y1="82.52" x2="82.52" y2="64.52"/>
        <line class="cls-2" x1="64.52" y1="88.52" x2="88.52" y2="64.52"/>
        <line class="cls-2" x1="64.52" y1="94.52" x2="94.52" y2="64.52"/>
        <line class="cls-2" x1="64.52" y1="100.52" x2="100.52" y2="64.52"/>
        <line class="cls-2" x1="64.52" y1="106.52" x2="106.52" y2="64.52"/>
        <line class="cls-2" x1="64.52" y1="112.52" x2="112.52" y2="64.52"/>
        <line class="cls-2" x1="64.52" y1="118.52" x2="118.52" y2="64.52"/>
        <line class="cls-2" x1="64.52" y1="124.52" x2="124.52" y2="64.52"/>
        <line class="cls-2" x1="64.52" y1="130.52" x2="130.52" y2="64.52"/>
        <line class="cls-2" x1="64.52" y1="136.52" x2="136.52" y2="64.52"/>
        <line class="cls-2" x1="64.52" y1="142.52" x2="142.52" y2="64.52"/>
        <line class="cls-2" x1="64.52" y1="148.51" x2="148.52" y2="64.52"/>
        <line class="cls-2" x1="70.52" y1="148.51" x2="148.52" y2="70.52"/>
      </g>
      <g>
        <line class="cls-2" x1="-7.48" y1="82.52" x2="10.52" y2="64.52"/>
        <line class="cls-2" x1="-7.48" y1="88.52" x2="16.52" y2="64.52"/>
        <line class="cls-2" x1="-7.48" y1="94.52" x2="22.52" y2="64.52"/>
        <line class="cls-2" x1="-7.48" y1="100.52" x2="28.52" y2="64.52"/>
        <line class="cls-2" x1="-7.48" y1="106.52" x2="34.52" y2="64.52"/>
        <line class="cls-2" x1="-7.48" y1="112.52" x2="40.52" y2="64.52"/>
        <line class="cls-2" x1="-7.48" y1="118.52" x2="46.52" y2="64.52"/>
        <line class="cls-2" x1="-7.48" y1="124.52" x2="52.52" y2="64.52"/>
        <line class="cls-2" x1="-7.48" y1="130.52" x2="58.52" y2="64.52"/>
        <line class="cls-2" x1="-7.48" y1="136.52" x2="64.52" y2="64.52"/>
        <line class="cls-2" x1="-7.48" y1="142.52" x2="70.52" y2="64.52"/>
        <line class="cls-2" x1="-7.48" y1="148.51" x2="76.52" y2="64.52"/>
        <line class="cls-2" x1="-1.48" y1="148.51" x2="76.52" y2="70.52"/>
      </g>
      <g>
        <line class="cls-2" x1="-79.48" y1="148.51" x2="4.52" y2="64.52"/>
        <line class="cls-2" x1="-73.48" y1="148.51" x2="4.52" y2="70.52"/>
      </g>
      <g>
        <line class="cls-2" x1="64.52" y1="10.52" x2="82.52" y2="-7.48"/>
        <line class="cls-2" x1="64.52" y1="16.52" x2="88.52" y2="-7.48"/>
        <line class="cls-2" x1="64.52" y1="22.52" x2="94.52" y2="-7.48"/>
        <line class="cls-2" x1="64.52" y1="28.52" x2="100.52" y2="-7.48"/>
        <line class="cls-2" x1="64.52" y1="34.52" x2="106.52" y2="-7.48"/>
        <line class="cls-2" x1="64.52" y1="40.52" x2="112.52" y2="-7.48"/>
        <line class="cls-2" x1="64.52" y1="46.52" x2="118.52" y2="-7.48"/>
        <line class="cls-2" x1="64.52" y1="52.52" x2="124.52" y2="-7.48"/>
        <line class="cls-2" x1="64.52" y1="58.52" x2="130.52" y2="-7.48"/>
        <line class="cls-2" x1="64.52" y1="64.52" x2="136.52" y2="-7.48"/>
        <line class="cls-2" x1="64.52" y1="70.52" x2="142.52" y2="-7.48"/>
        <line class="cls-2" x1="64.52" y1="76.51" x2="148.52" y2="-7.48"/>
        <line class="cls-2" x1="70.52" y1="76.51" x2="148.52" y2="-1.48"/>
      </g>
      <g>
        <line class="cls-2" x1="-7.48" y1="10.52" x2="10.52" y2="-7.48"/>
        <line class="cls-2" x1="-7.48" y1="16.52" x2="16.52" y2="-7.48"/>
        <line class="cls-2" x1="-7.48" y1="22.52" x2="22.52" y2="-7.48"/>
        <line class="cls-2" x1="-7.48" y1="28.52" x2="28.52" y2="-7.48"/>
        <line class="cls-2" x1="-7.48" y1="34.52" x2="34.52" y2="-7.48"/>
        <line class="cls-2" x1="-7.48" y1="40.52" x2="40.52" y2="-7.48"/>
        <line class="cls-2" x1="-7.48" y1="46.52" x2="46.52" y2="-7.48"/>
        <line class="cls-2" x1="-7.48" y1="52.52" x2="52.52" y2="-7.48"/>
        <line class="cls-2" x1="-7.48" y1="58.52" x2="58.52" y2="-7.48"/>
        <line class="cls-2" x1="-7.48" y1="64.52" x2="64.52" y2="-7.48"/>
        <line class="cls-2" x1="-7.48" y1="70.52" x2="70.52" y2="-7.48"/>
        <line class="cls-2" x1="-7.48" y1="76.51" x2="76.52" y2="-7.48"/>
        <line class="cls-2" x1="-1.48" y1="76.51" x2="76.52" y2="-1.48"/>
        <line class="cls-2" x1="4.52" y1="76.51" x2="76.52" y2="4.52"/>
        <line class="cls-2" x1="10.52" y1="76.51" x2="76.52" y2="10.52"/>
        <line class="cls-2" x1="16.52" y1="76.51" x2="76.52" y2="16.52"/>
        <line class="cls-2" x1="22.52" y1="76.51" x2="76.52" y2="22.52"/>
        <line class="cls-2" x1="28.52" y1="76.51" x2="76.52" y2="28.52"/>
        <line class="cls-2" x1="34.52" y1="76.51" x2="76.52" y2="34.52"/>
        <line class="cls-2" x1="40.52" y1="76.51" x2="76.52" y2="40.52"/>
        <line class="cls-2" x1="46.52" y1="76.51" x2="76.52" y2="46.52"/>
        <line class="cls-2" x1="52.52" y1="76.51" x2="76.52" y2="52.52"/>
        <line class="cls-2" x1="58.52" y1="76.51" x2="76.52" y2="58.52"/>
        <line class="cls-2" x1="64.52" y1="76.51" x2="76.52" y2="64.52"/>
      </g>
      <g>
        <line class="cls-2" x1="-79.48" y1="76.51" x2="4.52" y2="-7.48"/>
        <line class="cls-2" x1="-73.48" y1="76.51" x2="4.52" y2="-1.48"/>
        <line class="cls-2" x1="-67.48" y1="76.51" x2="4.52" y2="4.52"/>
        <line class="cls-2" x1="-61.48" y1="76.51" x2="4.52" y2="10.52"/>
        <line class="cls-2" x1="-55.48" y1="76.51" x2="4.52" y2="16.52"/>
        <line class="cls-2" x1="-49.48" y1="76.51" x2="4.52" y2="22.52"/>
        <line class="cls-2" x1="-43.48" y1="76.51" x2="4.52" y2="28.52"/>
        <line class="cls-2" x1="-37.48" y1="76.51" x2="4.52" y2="34.52"/>
        <line class="cls-2" x1="-31.48" y1="76.51" x2="4.52" y2="40.52"/>
        <line class="cls-2" x1="-25.48" y1="76.51" x2="4.52" y2="46.52"/>
        <line class="cls-2" x1="-19.48" y1="76.51" x2="4.52" y2="52.52"/>
        <line class="cls-2" x1="-13.48" y1="76.51" x2="4.52" y2="58.52"/>
        <line class="cls-2" x1="-7.48" y1="76.51" x2="4.52" y2="64.52"/>
      </g>
      <g>
        <line class="cls-2" x1="64.52" y1="4.51" x2="148.52" y2="-79.48"/>
        <line class="cls-2" x1="70.52" y1="4.51" x2="148.52" y2="-73.48"/>
      </g>
      <g>
        <line class="cls-2" x1="-7.48" y1="4.51" x2="76.52" y2="-79.48"/>
        <line class="cls-2" x1="-1.48" y1="4.51" x2="76.52" y2="-73.48"/>
        <line class="cls-2" x1="4.52" y1="4.51" x2="76.52" y2="-67.48"/>
        <line class="cls-2" x1="10.52" y1="4.51" x2="76.52" y2="-61.48"/>
        <line class="cls-2" x1="16.52" y1="4.51" x2="76.52" y2="-55.48"/>
        <line class="cls-2" x1="22.52" y1="4.51" x2="76.52" y2="-49.48"/>
        <line class="cls-2" x1="28.52" y1="4.51" x2="76.52" y2="-43.48"/>
        <line class="cls-2" x1="34.52" y1="4.51" x2="76.52" y2="-37.48"/>
        <line class="cls-2" x1="40.52" y1="4.51" x2="76.52" y2="-31.48"/>
        <line class="cls-2" x1="46.52" y1="4.51" x2="76.52" y2="-25.48"/>
        <line class="cls-2" x1="52.52" y1="4.51" x2="76.52" y2="-19.48"/>
        <line class="cls-2" x1="58.52" y1="4.51" x2="76.52" y2="-13.48"/>
        <line class="cls-2" x1="64.52" y1="4.51" x2="76.52" y2="-7.48"/>
      </g>
      <g>
        <line class="cls-2" x1="-79.48" y1="4.51" x2="4.52" y2="-79.48"/>
        <line class="cls-2" x1="-73.48" y1="4.51" x2="4.52" y2="-73.48"/>
        <line class="cls-2" x1="-67.48" y1="4.51" x2="4.52" y2="-67.48"/>
        <line class="cls-2" x1="-61.48" y1="4.51" x2="4.52" y2="-61.48"/>
        <line class="cls-2" x1="-55.48" y1="4.51" x2="4.52" y2="-55.48"/>
        <line class="cls-2" x1="-49.48" y1="4.51" x2="4.52" y2="-49.48"/>
        <line class="cls-2" x1="-43.48" y1="4.51" x2="4.52" y2="-43.48"/>
        <line class="cls-2" x1="-37.48" y1="4.51" x2="4.52" y2="-37.48"/>
        <line class="cls-2" x1="-31.48" y1="4.51" x2="4.52" y2="-31.48"/>
        <line class="cls-2" x1="-25.48" y1="4.51" x2="4.52" y2="-25.48"/>
        <line class="cls-2" x1="-19.48" y1="4.51" x2="4.52" y2="-19.48"/>
        <line class="cls-2" x1="-13.48" y1="4.51" x2="4.52" y2="-13.48"/>
        <line class="cls-2" x1="-7.48" y1="4.51" x2="4.52" y2="-7.48"/>
      </g>
    </pattern>
  </defs>
  <title>hbk_groundfloor</title>
  <g id="white_square" data-name="white square">
    <rect class="cls-3" width="648" height="648"/>
  </g>
  <g id="lines">
    <polygon class="cls-4" points="478.12 398.27 478.12 601.27 72.12 601.27 72.12 361.27 34.12 361.27 34.12 175.27 72.12 175.27 72.12 137.27 182.12 137.27 182.12 117.27 369.12 117.27 369.12 151.27 329.12 151.27 329.12 406.27 366.92 406.27 366.92 398.12 478.12 398.27"/>
    <polygon class="cls-5" points="478.12 398.27 478.12 137.22 369.12 137.22 369.12 151.27 329.12 151.27 329.12 406.27 366.92 406.27 366.92 398.12 478.12 398.27"/>
    <polyline class="cls-6" points="478.12 453.77 329.12 453.77 256.12 397.74 256.12 286.52 221.77 286.52 221.77 259.65 184.41 259.65 184.41 262.22 184.41 285.67 147.06 285.67 147.06 246.78 34.12 246.78"/>
    <line class="cls-6" x1="147.06" y1="285.67" x2="213.17" y2="285.67"/>
    <line class="cls-6" x1="147.06" y1="297.15" x2="147.06" y2="285.67"/>
    <line class="cls-6" x1="147.06" y1="306.1" x2="147.06" y2="329.31"/>
    <line class="cls-6" x1="72.5" y1="329.31" x2="147.06" y2="329.31"/>
    <line class="cls-6" x1="72.5" y1="344.62" x2="72.5" y2="329.31"/>
    <line class="cls-6" x1="34.12" y1="344.62" x2="72.5" y2="344.62"/>
    <line class="cls-6" x1="147.06" y1="347.71" x2="147.06" y2="357.25"/>
    <line class="cls-6" x1="132.31" y1="396.37" x2="184.3" y2="396.37"/>
    <line class="cls-6" x1="184.3" y1="407.34" x2="184.3" y2="396.37"/>
    <line class="cls-6" x1="220.79" y1="407.34" x2="184.3" y2="407.34"/>
    <line class="cls-6" x1="220.79" y1="357.25" x2="220.79" y2="407.34"/>
    <line class="cls-6" x1="229.38" y1="357.25" x2="220.79" y2="357.25"/>
    <line class="cls-6" x1="154.73" y1="357.25" x2="184.3" y2="357.25"/>
    <line class="cls-6" x1="195.75" y1="387.54" x2="184.3" y2="387.54"/>
    <line class="cls-6" x1="184.3" y1="357.25" x2="184.3" y2="387.54"/>
    <line class="cls-6" x1="202.54" y1="387.54" x2="202.54" y2="407.34"/>
    <line class="cls-6" x1="220.79" y1="387.54" x2="202.54" y2="387.54"/>
    <line class="cls-6" x1="161.17" y1="357.25" x2="161.17" y2="396.37"/>
    <line class="cls-6" x1="138.27" y1="396.37" x2="138.27" y2="357.25"/>
    <line class="cls-6" x1="147.06" y1="357.25" x2="138.27" y2="357.25"/>
    <line class="cls-6" x1="154.73" y1="347.71" x2="173.09" y2="347.71"/>
    <line class="cls-6" x1="184.3" y1="357.25" x2="184.3" y2="347.71"/>
    <line class="cls-6" x1="154.73" y1="357.25" x2="154.73" y2="347.71"/>
    <line class="cls-6" x1="179.05" y1="347.71" x2="184.3" y2="347.71"/>
    <line class="cls-6" x1="169.51" y1="357.25" x2="169.51" y2="347.71"/>
    <polyline class="cls-6" points="72.12 361.27 118 361.27 118 441.15"/>
    <polyline class="cls-6" points="118 458.46 118 543.17 72.5 543.17"/>
    <line class="cls-6" x1="72.12" y1="449.11" x2="118" y2="449.11"/>
    <line class="cls-6" x1="118" y1="552.53" x2="118" y2="601.27"/>
    <polyline class="cls-6" points="202.54 466.42 147.06 466.42 147.06 540.83 202.54 540.83"/>
    <polyline class="cls-6" points="216.29 466.42 220.79 466.42 220.79 540.83 216.29 540.83"/>
    <polyline class="cls-6" points="355.21 540.83 404.62 540.83 404.62 466.42 355.21 466.42"/>
    <polyline class="cls-6" points="342.39 540.83 330.89 540.83 330.89 466.42 342.39 466.42"/>
    <line class="cls-6" x1="404.62" y1="601.27" x2="404.62" y2="540.83"/>
    <polyline class="cls-6" points="329.67 601.27 329.67 552.62 404.62 552.62"/>
    <line class="cls-6" x1="220.79" y1="601.27" x2="220.79" y2="575.06"/>
    <line class="cls-6" x1="312.23" y1="601.27" x2="312.23" y2="575.06"/>
    <line class="cls-6" x1="293.85" y1="601.27" x2="293.85" y2="575.06"/>
    <line class="cls-6" x1="275.41" y1="601.27" x2="275.41" y2="575.06"/>
    <line class="cls-6" x1="258.03" y1="601.27" x2="258.03" y2="575.06"/>
    <line class="cls-6" x1="238.97" y1="601.27" x2="238.97" y2="575.06"/>
    <line class="cls-6" x1="220.79" y1="575.06" x2="231.49" y2="575.06"/>
    <line class="cls-6" x1="244.81" y1="575.06" x2="269.25" y2="575.06"/>
    <line class="cls-6" x1="281.47" y1="575.06" x2="305.92" y2="575.06"/>
    <line class="cls-6" x1="317.96" y1="575.06" x2="329.67" y2="575.06"/>
    <line class="cls-6" x1="184.3" y1="364.02" x2="220.79" y2="364.02"/>
    <line class="cls-6" x1="184.3" y1="376.81" x2="220.79" y2="376.81"/>
    <line class="cls-6" x1="184.3" y1="372.4" x2="220.79" y2="372.4"/>
    <line class="cls-6" x1="184.3" y1="367.75" x2="220.79" y2="367.75"/>
    <line class="cls-6" x1="194.04" y1="361.27" x2="194.04" y2="380.43"/>
    <line class="cls-6" x1="210.53" y1="361.27" x2="210.53" y2="380.43"/>
    <line class="cls-6" x1="256.12" y1="356.07" x2="247.53" y2="356.07"/>
    <polygon class="cls-6" points="154.78 300.79 154.73 326.62 238.97 326.62 238.97 300.79 154.78 300.79"/>
    <line class="cls-6" x1="315.1" y1="246.78" x2="315.1" y2="284.04"/>
    <line class="cls-6" x1="329.12" y1="284.04" x2="315.1" y2="284.04"/>
    <line class="cls-6" x1="322.11" y1="265.41" x2="322.11" y2="284.04"/>
    <line class="cls-6" x1="329.12" y1="279.92" x2="315.1" y2="279.92"/>
    <line class="cls-6" x1="314.7" y1="274.73" x2="329.52" y2="274.73"/>
    <line class="cls-6" x1="315.1" y1="270.02" x2="329.12" y2="270.02"/>
    <line class="cls-6" x1="315.1" y1="265.41" x2="329.12" y2="265.41"/>
    <line class="cls-6" x1="72.1" y1="190.89" x2="34.12" y2="190.89"/>
    <line class="cls-6" x1="53.11" y1="183.42" x2="34.12" y2="183.42"/>
    <line class="cls-6" x1="53.11" y1="190.89" x2="53.11" y2="175.27"/>
    <line class="cls-6" x1="39.15" y1="175.27" x2="39.15" y2="190.89"/>
    <line class="cls-6" x1="43.62" y1="175.27" x2="43.62" y2="190.89"/>
    <line class="cls-6" x1="48.93" y1="175.27" x2="48.93" y2="190.89"/>
    <line class="cls-6" x1="367.1" y1="132.89" x2="329.12" y2="132.89"/>
    <line class="cls-6" x1="348.11" y1="125.42" x2="329.12" y2="125.42"/>
    <line class="cls-6" x1="348.11" y1="132.89" x2="348.11" y2="117.27"/>
    <line class="cls-6" x1="334.15" y1="117.27" x2="334.15" y2="132.89"/>
    <line class="cls-6" x1="338.62" y1="117.27" x2="338.62" y2="132.89"/>
    <line class="cls-6" x1="343.93" y1="117.27" x2="343.93" y2="132.89"/>
    <line class="cls-6" x1="329.12" y1="117.27" x2="329.12" y2="137.22"/>
    <line class="cls-6" x1="54.11" y1="352.83" x2="35.12" y2="352.83"/>
    <line class="cls-6" x1="54.11" y1="360.29" x2="54.11" y2="344.67"/>
    <line class="cls-6" x1="40.15" y1="344.67" x2="40.15" y2="360.29"/>
    <line class="cls-6" x1="44.62" y1="344.67" x2="44.62" y2="360.29"/>
    <line class="cls-6" x1="49.93" y1="344.67" x2="49.93" y2="360.29"/>
  </g>
  <g id="colors">
    <polygon class="cls-7" points="184.41 285.67 184.41 259.65 221.77 259.65 221.77 286.52 184.41 285.67"/>
    <polygon class="cls-7" points="161.16 357.25 184.3 357.25 184.3 387.54 202.54 387.54 202.54 407.34 184.3 407.34 184.41 396.37 161.16 396.37 161.16 357.25"/>
    <polygon class="cls-7" points="138.27 396.37 161.16 396.37 161.16 357.25 154.73 357.25 154.73 347.71 147.06 347.71 146.88 357.25 138.27 357.25 138.27 396.37"/>
    <rect class="cls-8" x="169.67" y="347.66" width="14.6" height="9.63"/>
    <rect class="cls-9" x="257.95" y="420.4" width="52.06" height="9.21" transform="translate(319.28 -84.93) rotate(37.71)"/>
    <rect class="cls-10" x="240.1" y="449.11" width="65.82" height="103.51"/>
    <rect class="cls-10" x="125.27" y="552.53" width="86.39" height="40.06"/>
    <rect class="cls-10" x="133.78" y="416.85" width="97.71" height="40.06"/>
    <rect class="cls-11" x="220.79" y="575.06" width="108.88" height="26.21"/>
    <rect class="cls-11" x="72.12" y="361.27" width="45.88" height="240"/>
    <rect class="cls-12" x="147.09" y="466.42" width="73.7" height="74.41"/>
    <rect class="cls-12" x="330.3" y="466.42" width="73.7" height="74.41"/>
    <rect class="cls-10" x="76.13" y="332.28" width="175.7" height="13.43"/>
  </g>
  <g id="symbols">
    <rect class="cls-13" x="199.74" y="263.79" width="5.73" height="5.73" rx="2.86" ry="2.86"/>
    <rect class="cls-13" x="199.74" y="269.52" width="5.73" height="11.71"/>
    <rect class="cls-13" x="197.51" y="269.52" width="10.12" height="1.65"/>
    <rect class="cls-13" x="146.88" y="367.33" width="5.73" height="5.73" rx="2.86" ry="2.86"/>
    <rect class="cls-13" x="146.88" y="373.05" width="5.73" height="11.71"/>
    <rect class="cls-13" x="144.66" y="373.05" width="10.12" height="1.65"/>
    <rect class="cls-13" x="169.87" y="367.37" width="5.73" height="5.73" rx="2.86" ry="2.86"/>
    <polygon class="cls-13" points="168.37 384.6 172.73 370.23 177.1 384.6 168.37 384.6"/>
    <rect class="cls-13" x="167.67" y="373.09" width="10.12" height="1.65"/>
    <text class="cls-14" transform="translate(174.7 355.21)">E</text>
    <g id="X">
      <polygon class="cls-15" points="194.94 474.95 192.3 472.3 198.18 466.42 192.3 460.54 194.94 457.89 200.82 463.77 206.7 457.89 209.35 460.54 203.47 466.42 209.35 472.3 206.7 474.95 200.82 468.86 194.94 474.95" onclick="switchInfo('North Courtyard', 'Courtyards are inaccessible due to door steps');"/>
      <polygon class="cls-15" points="181.38 394.47 178.74 391.82 184.62 385.94 178.74 380.06 181.38 377.42 187.26 383.29 193.14 377.42 195.79 380.06 189.91 385.94 195.79 391.82 193.14 394.47 187.26 388.38 181.38 394.47" onclick="switchInfo('Bathroom', 'No automatic door to the women\'s restroom');"/>
      <polygon class="cls-15" points="358.7 485.82 356.06 483.17 361.94 477.29 356.06 471.41 358.7 468.77 364.58 474.64 370.46 468.77 373.11 471.41 367.23 477.29 373.11 483.17 370.46 485.82 364.58 479.73 358.7 485.82" onclick="switchInfo('South Courtyard', 'Courtyards are inaccessible due to door steps');"/>
    </g>
    <g id="O">
      <circle class="cls-16" cx="269.25" cy="419.89" r="6.78" onclick="switchInfo('Service Desk', 'Ask the Service Desk staff for accessibility information and media sources for the Library Media Center');"/>
      <circle class="cls-16" cx="167.67" cy="488.05" r="6.78" onclick="switchInfo('Courtyards', 'Study booths are at a sufficient height, and some chairs have armrests');"/>
      <circle class="cls-16" cx="175.6" cy="401.85" r="6.78" onclick="switchInfo('Water Fountain', 'This water fountain is accessible for people in wheelchairs');"/>
      <circle class="cls-16" cx="279.79" cy="520.49" r="6.78" onclick="switchInfo('Computers', 'Desks are at a good height');"/>
      <circle class="cls-16" cx="194.04" cy="289.27" r="6.78" onclick="switchInfo('Bathroom', 'Automatic door to the men\'s restroom');"/>
    </g>
    <text class="cls-17" transform="translate(185.46 355.22)">S</text>
  </g>
  <g id="text">
    <text class="cls-18" transform="translate(364.58 239.86)">Ho<tspan class="cls-19" x="14.41" y="0">r</tspan><tspan x="18.38" y="0">nbake </tspan><tspan class="cls-20" x="51.84" y="0">S</tspan><tspan x="57.83" y="0">outh</tspan></text>
    <text class="cls-18" transform="translate(171.54 196.79)"><tspan class="cls-21">C</tspan><tspan x="6.83" y="0">olle</tspan><tspan class="cls-22" x="25.09" y="0">c</tspan><tspan x="30.62" y="0">tions and </tspan><tspan class="cls-23" x="12.16" y="14.4">S</tspan><tspan x="18.04" y="14.4">taff </tspan><tspan class="cls-24" x="37.34" y="14.4">A</tspan><tspan class="cls-25" x="44.65" y="14.4">r</tspan><tspan x="48.45" y="14.4">eas</tspan></text>
    <text class="cls-18" transform="translate(251.84 466.99)">Lib<tspan class="cls-26" x="15.3" y="0">r</tspan><tspan x="19.16" y="0">a</tspan><tspan class="cls-27" x="24.95" y="0">r</tspan><tspan x="29.17" y="0">y </tspan><tspan class="cls-28" x="1.87" y="14.4">M</tspan><tspan x="11.59" y="14.4">edia </tspan><tspan class="cls-28" x="-3.02" y="28.8">S</tspan><tspan x="2.96" y="28.8">e</tspan><tspan class="cls-27" x="8.98" y="28.8">r</tspan><tspan x="13.2" y="28.8">vi</tspan><tspan class="cls-29" x="21.78" y="28.8">c</tspan><tspan x="27.08" y="28.8">es</tspan></text>
    <text class="cls-18" transform="translate(429.1 535.79)">MITH</text>
    <text class="cls-18" transform="translate(71.97 288.79)"><tspan class="cls-30">O</tspan><tspan x="8.46" y="0">ffi</tspan><tspan class="cls-31" x="18.24" y="0">c</tspan><tspan x="23.54" y="0">es</tspan></text>
    <text class="cls-32" transform="translate(247.05 573.16)"><tspan class="cls-33">M</tspan><tspan x="8.1" y="0">edia </tspan><tspan class="cls-34" x="28.03" y="0">R</tspan><tspan x="33.45" y="0">ooms</tspan></text>
    <text class="cls-32" transform="translate(347.11 579.31)"><tspan class="cls-35">S</tspan><tspan x="4.9" y="0">taff </tspan><tspan class="cls-36" x="20.98" y="0">A</tspan><tspan class="cls-37" x="27.07" y="0">r</tspan><tspan x="30.24" y="0">ea</tspan></text>
    <text class="cls-32" transform="translate(163.35 506.23)"><tspan class="cls-21">C</tspan><tspan x="5.69" y="0">ou</tspan><tspan class="cls-38" x="16.69" y="0">r</tspan><tspan class="cls-39" x="20.2" y="0">t</tspan><tspan class="cls-40" x="23.6" y="0">y</tspan><tspan x="28.27" y="0">a</tspan><tspan class="cls-37" x="33.09" y="0">r</tspan><tspan x="36.26" y="0">d</tspan></text>
    <text class="cls-32" transform="translate(348.27 507.92)"><tspan class="cls-21">C</tspan><tspan x="5.69" y="0">ou</tspan><tspan class="cls-38" x="16.69" y="0">r</tspan><tspan class="cls-39" x="20.2" y="0">t</tspan><tspan class="cls-40" x="23.6" y="0">y</tspan><tspan x="28.27" y="0">a</tspan><tspan class="cls-37" x="33.09" y="0">r</tspan><tspan x="36.26" y="0">d</tspan></text>
    <text class="cls-32" transform="translate(81.49 567.16)"><tspan class="cls-33">M</tspan><tspan x="8.1" y="0">edia </tspan><tspan class="cls-35" x="-0.64" y="12">S</tspan><tspan x="4.26" y="12">tudio</tspan></text>
    <text class="cls-41" transform="translate(45.62 64.48)">Ho<tspan class="cls-19" x="21.62" y="0">r</tspan><tspan x="27.58" y="0">nbake - G</tspan><tspan class="cls-42" x="98.73" y="0">r</tspan><tspan x="104.43" y="0">ound </tspan><tspan class="cls-43" x="148.19" y="0">F</tspan><tspan x="156.65" y="0">loor</tspan></text>
  </g>
  <g id="KEY">
    <text class="cls-41" transform="translate(497.72 64.48)"><tspan class="cls-44">M</tspan><tspan x="14.58" y="0">ap Key</tspan></text>
    <rect class="cls-12" x="499.25" y="103.1" width="15.3" height="15.3"/>
    <rect class="cls-45" x="499.25" y="130.07" width="15.3" height="15.3"/>
    <rect class="cls-10" x="499.25" y="77" width="15.3" height="15.3"/>
    <rect class="cls-46" x="499.25" y="156.91" width="15.3" height="15.3"/>
    <text class="cls-47" transform="translate(521.3 87.07)">Easily <tspan class="cls-48" x="35.32" y="0">A</tspan><tspan class="cls-49" x="43.72" y="0">cc</tspan><tspan x="56.1" y="0">essible</tspan></text>
    <text class="cls-47" transform="translate(521.3 113.16)">Not Easily <tspan class="cls-48" x="59.82" y="0">A</tspan><tspan class="cls-49" x="68.22" y="0">cc</tspan><tspan x="80.6" y="0">essible</tspan></text>
    <text class="cls-47" transform="translate(521.3 140.13)"><tspan class="cls-50">R</tspan><tspan x="7.59" y="0">esou</tspan><tspan class="cls-25" x="35.55" y="0">r</tspan><tspan class="cls-49" x="39.98" y="0">c</tspan><tspan x="46.17" y="0">es</tspan></text>
    <text class="cls-51" transform="translate(503.86 168.21)">E</text>
    <text class="cls-47" transform="translate(521.3 166.98)">Ele<tspan class="cls-52" x="17.21" y="0">va</tspan><tspan class="cls-49" x="30.58" y="0">t</tspan><tspan class="cls-53" x="35.13" y="0">or</tspan></text>
    <text class="cls-47" transform="translate(521.3 193.82)"><tspan class="cls-50">R</tspan><tspan x="7.59" y="0">est</tspan><tspan class="cls-25" x="24.78" y="0">r</tspan><tspan x="29.22" y="0">oom</tspan></text>
    <rect class="cls-54" x="499.25" y="183.76" width="15.28" height="15.28"/>
    <rect class="cls-13" x="505.36" y="186.75" width="3.08" height="3.08" rx="1.54" ry="1.54"/>
    <polygon class="cls-13" points="504.55 196.01 506.89 188.29 509.24 196.01 504.55 196.01"/>
    <rect class="cls-13" x="504.18" y="189.83" width="5.43" height="0.89"/>
    <text class="cls-51" transform="translate(503.86 221.88)">S</text>
    <text class="cls-47" transform="translate(521.3 220.65)">Clear Si<tspan class="cls-49" x="42.91" y="0">g</tspan><tspan x="50.65" y="0">nage</tspan></text>
    <text class="cls-47" transform="translate(521.3 247.49)"><tspan class="cls-55">G</tspan><tspan x="9.11" y="0">ood No</tspan><tspan class="cls-49" x="52.25" y="0">t</tspan><tspan x="56.8" y="0">e</tspan></text>
    <text class="cls-47" transform="translate(521.3 274.34)">Bad No<tspan class="cls-49" x="42.1" y="0">t</tspan><tspan x="46.65" y="0">e</tspan></text>
    <circle class="cls-16" cx="506.89" cy="245.08" r="6.78"/>
    <polygon class="cls-15" points="501.93 279.13 499.69 276.89 504.66 271.92 499.69 266.96 501.93 264.72 506.89 269.69 511.86 264.72 514.1 266.96 509.13 271.92 514.1 276.89 511.86 279.13 506.89 273.98 501.93 279.13"/>
  </g>
</svg>
