<svg xmlns="http://www.w3.org/2000/svg" xmlns:xlink="http://www.w3.org/1999/xlink" viewBox="0 0 648 648">
  <script xlink:href="./index.js" />
  <defs>
    <style>
      @import url("https://use.typekit.net/bqr7aly.css");
      .cls-1, .cls-10, .cls-11, .cls-12, .cls-13, .cls-14, .cls-15, .cls-3, .cls-4, .cls-5, .cls-6, .cls-7, .cls-8, .cls-9 {
        fill: none;
      }

      .cls-2 {
        fill: #fff;
        opacity: 0.82;
      }

      .cls-10, .cls-11, .cls-12, .cls-13, .cls-14, .cls-15, .cls-3, .cls-4, .cls-5, .cls-6, .cls-7, .cls-8, .cls-9 {
        stroke: #231f20;
      }

      .cls-3 {
        stroke-width: 4.95px;
      }

      .cls-4 {
        stroke-width: 0.83px;
      }

      .cls-5 {
        stroke-width: 0.83px;
      }

      .cls-6 {
        stroke-width: 0.84px;
      }

      .cls-7 {
        stroke-width: 0.89px;
      }

      .cls-8 {
        stroke-width: 0.82px;
      }

      .cls-9 {
        stroke-width: 0.85px;
      }

      .cls-10 {
        stroke-width: 1.63px;
      }

      .cls-11 {
        stroke-width: 1.63px;
      }

      .cls-12 {
        stroke-width: 1.36px;
      }

      .cls-13 {
        stroke-width: 0.82px;
      }

      .cls-14 {
        stroke-width: 0.54px;
      }

      .cls-15 {
        stroke-width: 0.85px;
      }

      .cls-100, .cls-16, .cls-21, .cls-22, .cls-26, .cls-31 {
        fill: #666;
      }

      .cls-100, .cls-16, .cls-17, .cls-18, .cls-19, .cls-21, .cls-22, .cls-24, .cls-25, .cls-26, .cls-27, .cls-28, .cls-91, .cls-92 {
        stroke: #000;
      }

      .cls-100, .cls-16, .cls-17, .cls-18, .cls-19, .cls-21, .cls-22, .cls-24, .cls-25, .cls-26, .cls-27, .cls-28, .cls-32, .cls-91, .cls-92 {
        stroke-miterlimit: 10;
      }

      .cls-16 {
        stroke-width: 0.4px;
      }

      .cls-100, .cls-16, .cls-20, .cls-21, .cls-22 {
        opacity: 0.3;
      }

      .cls-17, .cls-18, .cls-19, .cls-32, .cls-33, .cls-92 {
        fill: #0060ff;
      }

      .cls-17 {
        stroke-width: 0.49px;
      }

      .cls-17, .cls-18, .cls-19, .cls-92 {
        opacity: 0.4;
      }

      .cls-18 {
        stroke-width: 0.46px;
      }

      .cls-19 {
        stroke-width: 0.45px;
      }

      .cls-20 {
        fill: #00caff;
      }

      .cls-21 {
        stroke-width: 0.51px;
      }

      .cls-22 {
        stroke-width: 0.42px;
      }

      .cls-23, .cls-34 {
        fill: red;
      }

      .cls-23, .cls-24, .cls-25, .cls-27, .cls-28, .cls-91 {
        opacity: 0.2;
      }

      .cls-24, .cls-25, .cls-27, .cls-28, .cls-91 {
        fill: #ff0;
      }

      .cls-24 {
        stroke-width: 0.2px;
      }

      .cls-25 {
        stroke-width: 0.23px;
      }

      .cls-26 {
        stroke-width: 0.5px;
        opacity: 0.3;
      }

      .cls-27 {
        stroke-width: 0.36px;
      }

      .cls-28 {
        stroke-width: 0.32px;
      }

      .cls-29, .cls-31 {
        font-size: 13.43px;
      }

      .cls-29, .cls-30 {
        fill: blue;
      }

      .cls-29, .cls-30, .cls-31 {
        font-family: myriad-pro, sans-serif;
        font-weight: 700;
      }

      .cls-30, .cls-49 {
        font-size: 10.75px;
      }

      .cls-32 {
        font-size: 12px;
        stroke: #0060ff;
      }

      .cls-32, .cls-92 {
        stroke-width: 0.5px;
      }

      .cls-32, .cls-36, .cls-42, .cls-46, .cls-49, .cls-52, .cls-57, .cls-72, .cls-83, .cls-89, .cls-93 {
        font-family: myriad-pro, sans-serif;
      }

      .cls-35 {
        clip-path: url(#clip-path);
      }

      .cls-36, .cls-42, .cls-89 {
        font-size: 13.63px;
      }

      .cls-36, .cls-42, .cls-49, .cls-52, .cls-57, .cls-72, .cls-83, .cls-89 {
        fill: #231f20;
      }

      .cls-36 {
        letter-spacing: 0.9em;
      }

      .cls-37 {
        letter-spacing: 0.9em;
      }

      .cls-38 {
        letter-spacing: 0.9em;
      }

      .cls-39 {
        letter-spacing: 0.9em;
      }

      .cls-40 {
        letter-spacing: 0.86em;
      }

      .cls-41 {
        letter-spacing: 0em;
      }

      .cls-43 {
        letter-spacing: 0.9em;
      }

      .cls-44 {
        letter-spacing: 0.88em;
      }

      .cls-45 {
        letter-spacing: 0.86em;
      }

      .cls-46 {
        font-size: 18px;
      }

      .cls-47 {
        letter-spacing: 0.01em;
      }

      .cls-48 {
        letter-spacing: -0.02em;
      }

      .cls-50 {
        letter-spacing: 0.01em;
      }

      .cls-51 {
        letter-spacing: 0em;
      }

      .cls-52, .cls-83 {
        font-size: 10.9px;
      }

      .cls-53 {
        letter-spacing: -0.01em;
      }

      .cls-54 {
        letter-spacing: 0.01em;
      }

      .cls-55 {
        letter-spacing: 0.02em;
      }

      .cls-56 {
        letter-spacing: -0.01em;
      }

      .cls-57 {
        font-size: 11.99px;
        letter-spacing: -0.01em;
      }

      .cls-58 {
        letter-spacing: -0.01em;
      }

      .cls-59 {
        letter-spacing: -0.01em;
      }

      .cls-60 {
        letter-spacing: -0.02em;
      }

      .cls-61 {
        letter-spacing: -0.01em;
      }

      .cls-62 {
        letter-spacing: -0.02em;
      }

      .cls-63 {
        letter-spacing: 0em;
      }

      .cls-64 {
        letter-spacing: 0.01em;
      }

      .cls-65 {
        letter-spacing: -0.02em;
      }

      .cls-66 {
        letter-spacing: 0em;
      }

      .cls-67 {
        letter-spacing: -0.08em;
      }

      .cls-68 {
        letter-spacing: 0.01em;
      }

      .cls-69 {
        letter-spacing: 0em;
      }

      .cls-70 {
        letter-spacing: 0.02em;
      }

      .cls-71 {
        letter-spacing: -0.01em;
      }

      .cls-72 {
        font-size: 19.08px;
      }

      .cls-73 {
        letter-spacing: 0em;
      }

      .cls-74 {
        letter-spacing: 0.02em;
      }

      .cls-75 {
        letter-spacing: 0.03em;
      }

      .cls-76 {
        letter-spacing: -0.04em;
      }

      .cls-77 {
        letter-spacing: -0.01em;
      }

      .cls-78 {
        letter-spacing: 0em;
      }

      .cls-79 {
        letter-spacing: -0.01em;
      }

      .cls-80 {
        letter-spacing: 0em;
      }

      .cls-81 {
        letter-spacing: -0.01em;
      }

      .cls-82 {
        letter-spacing: -0.01em;
      }

      .cls-83 {
        letter-spacing: 0em;
      }

      .cls-84 {
        letter-spacing: 0em;
      }

      .cls-85 {
        letter-spacing: -0.02em;
      }

      .cls-86 {
        letter-spacing: -0.01em;
      }

      .cls-87 {
        letter-spacing: 0em;
      }

      .cls-88 {
        letter-spacing: -0.01em;
      }

      .cls-89 {
        letter-spacing: -0.02em;
      }

      .cls-90 {
        letter-spacing: 0em;
      }

      .cls-91 {
        stroke-width: 0.21px;
      }

      .cls-93 {
        font-size: 14px;
      }

      .cls-94 {
        letter-spacing: -0.01em;
      }

      .cls-95 {
        letter-spacing: -0.01em;
      }

      .cls-96 {
        letter-spacing: 0em;
      }

      .cls-97 {
        letter-spacing: -0.01em;
      }

      .cls-98 {
        letter-spacing: 0em;
      }

      .cls-99 {
        letter-spacing: 0em;
      }

      .cls-100 {
        stroke-width: 0.15px;
      }

      .cls-101 {
        fill: #989898;
      }

      .cls-102 {
        letter-spacing: 0em;
      }

      #O, #X {
        cursor: pointer;
      }
    </style>
    <clipPath id="clip-path">
      <rect class="cls-1" x="42.84" y="94.38" width="444.18" height="441.41"/>
    </clipPath>
  </defs>
  <title>mck-floor4</title>
  <g id="Layer_7" data-name="Layer 7">
    <rect class="cls-2" x="23.3" y="42.59" width="559.21" height="540.64"/>
  </g>
  <g id="lines">
    <polygon class="cls-3" points="56.04 298.46 119.26 298.46 119.26 261.16 112.44 261.1 112.44 106.17 412.98 106.17 412.98 298.46 470.22 298.46 470.22 485.35 56.04 485.35 56.04 298.46"/>
    <line class="cls-4" x1="185.12" y1="126.36" x2="185.12" y2="107.53"/>
    <line class="cls-4" x1="171.78" y1="126.36" x2="171.78" y2="107.53"/>
    <line class="cls-4" x1="158.45" y1="126.36" x2="158.45" y2="107.53"/>
    <line class="cls-4" x1="225.13" y1="126.36" x2="225.13" y2="107.53"/>
    <line class="cls-4" x1="211.79" y1="126.36" x2="211.79" y2="107.53"/>
    <line class="cls-4" x1="198.46" y1="126.36" x2="198.46" y2="107.53"/>
    <line class="cls-4" x1="327.07" y1="126.36" x2="327.07" y2="107.53"/>
    <line class="cls-4" x1="313.74" y1="126.36" x2="313.74" y2="107.53"/>
    <line class="cls-4" x1="300.4" y1="126.36" x2="300.4" y2="107.53"/>
    <line class="cls-4" x1="367.08" y1="126.36" x2="367.08" y2="107.53"/>
    <line class="cls-4" x1="353.75" y1="126.36" x2="353.75" y2="107.53"/>
    <line class="cls-4" x1="340.41" y1="126.36" x2="340.41" y2="107.53"/>
    <line class="cls-4" x1="287.47" y1="126.36" x2="287.47" y2="107.53"/>
    <line class="cls-4" x1="112.6" y1="243.86" x2="131.43" y2="243.86"/>
    <line class="cls-4" x1="112.6" y1="229.01" x2="131.43" y2="229.01"/>
    <line class="cls-4" x1="112.6" y1="214.9" x2="131.43" y2="214.9"/>
    <line class="cls-4" x1="112.6" y1="168.94" x2="131.43" y2="168.94"/>
    <line class="cls-4" x1="112.6" y1="154.09" x2="131.43" y2="154.09"/>
    <line class="cls-4" x1="112.6" y1="139.98" x2="131.43" y2="139.98"/>
    <line class="cls-4" x1="392.68" y1="243.86" x2="411.51" y2="243.86"/>
    <line class="cls-4" x1="392.68" y1="229.01" x2="411.51" y2="229.01"/>
    <line class="cls-4" x1="392.68" y1="214.9" x2="411.51" y2="214.9"/>
    <line class="cls-4" x1="195.74" y1="278.51" x2="195.74" y2="299.56"/>
    <line class="cls-4" x1="200.74" y1="278.28" x2="200.74" y2="299.86"/>
    <rect class="cls-4" x="186.95" y="278.1" width="18.05" height="21.71"/>
    <line class="cls-4" x1="187.15" y1="288.79" x2="205" y2="288.79"/>
    <line class="cls-4" x1="191.41" y1="278.47" x2="191.41" y2="299.52"/>
    <line class="cls-5" x1="136.2" y1="125.64" x2="136.2" y2="108.42"/>
    <line class="cls-5" x1="131.55" y1="125.64" x2="131.55" y2="108.42"/>
    <line class="cls-5" x1="127.05" y1="125.64" x2="127.05" y2="108.42"/>
    <line class="cls-5" x1="140.85" y1="125.67" x2="140.85" y2="108.45"/>
    <line class="cls-5" x1="389" y1="108.45" x2="389" y2="125.67"/>
    <line class="cls-5" x1="393.65" y1="108.45" x2="393.65" y2="125.67"/>
    <line class="cls-5" x1="398.14" y1="108.45" x2="398.14" y2="125.67"/>
    <line class="cls-5" x1="384.35" y1="108.42" x2="384.35" y2="125.64"/>
    <polyline class="cls-5" points="263.38 129.53 237.75 129.53 237.75 107.45 274.42 107.45 274.42 129.53 270.66 129.53"/>
    <rect class="cls-5" x="145.54" y="108.09" width="92.2" height="17.86"/>
    <rect class="cls-5" x="113.73" y="200.68" width="17.86" height="58.41"/>
    <rect class="cls-5" x="113.73" y="125.96" width="17.86" height="58.2"/>
    <rect class="cls-5" x="392.96" y="200.68" width="17.86" height="58.41"/>
    <rect class="cls-5" x="392.96" y="125.98" width="17.86" height="58.19"/>
    <line class="cls-6" x1="145.57" y1="117.23" x2="127.02" y2="117.23"/>
    <line class="cls-6" x1="379.62" y1="116.86" x2="398.17" y2="116.86"/>
    <rect class="cls-7" x="274.39" y="108.09" width="105.29" height="17.86"/>
    <line class="cls-8" x1="392.68" y1="169" x2="411.51" y2="169"/>
    <line class="cls-8" x1="392.68" y1="154.2" x2="411.51" y2="154.2"/>
    <line class="cls-8" x1="392.68" y1="140.14" x2="411.51" y2="140.14"/>
    <rect class="cls-9" x="113.76" y="108.11" width="31.76" height="17.86"/>
    <rect class="cls-9" x="379.67" y="108.11" width="31.77" height="17.87"/>
    <line class="cls-10" x1="168.47" y1="450.26" x2="168.47" y2="481.65"/>
    <polyline class="cls-10" points="250.04 382.43 250.04 378.69 233.12 378.69 233.12 390.47 250.04 390.47 250.04 387"/>
    <line class="cls-10" x1="124.65" y1="450.2" x2="220.31" y2="450.2"/>
    <line class="cls-10" x1="231.43" y1="449.39" x2="231.43" y2="481.65"/>
    <line class="cls-10" x1="375.03" y1="449.39" x2="375.03" y2="481.65"/>
    <line class="cls-10" x1="288.81" y1="450.22" x2="238.73" y2="450.22"/>
    <polyline class="cls-10" points="355.58 300.23 355.58 280.31 392.71 280.31"/>
    <polyline class="cls-10" points="232.53 284.68 285.49 284.68 285.49 300.67"/>
    <line class="cls-10" x1="190.23" y1="450.26" x2="190.23" y2="481.65"/>
    <polyline class="cls-10" points="353.39 450.23 392.86 450.23 392.86 482.58"/>
    <line class="cls-10" x1="295.22" y1="450.23" x2="347.28" y2="450.23"/>
    <polyline class="cls-10" points="308.9 426.38 308.9 430.97 321.55 430.97 321.55 415.81 308.9 415.81 308.9 420.95"/>
    <line class="cls-10" x1="308.9" y1="400.08" x2="308.9" y2="409.49"/>
    <polyline class="cls-10" points="308.9 396.52 308.9 391.52 333.86 391.52 333.86 405.71"/>
    <polyline class="cls-10" points="321.43 430.99 354.64 430.99 354.64 404.95 333.42 404.95"/>
    <line class="cls-10" x1="321.56" y1="424.58" x2="354.47" y2="424.58"/>
    <polyline class="cls-10" points="354.64 404.94 376.73 404.94 376.71 430.98 362.83 430.98"/>
    <line class="cls-10" x1="308.9" y1="404.89" x2="333.85" y2="404.89"/>
    <polyline class="cls-10" points="381.83 430.98 376.89 430.98 376.89 389.92"/>
    <polyline class="cls-10" points="389.17 430.98 400.56 430.98 400.56 398.41 376.75 398.41"/>
    <polyline class="cls-10" points="255.37 378.62 202.19 378.62 202.19 300.1"/>
    <polyline class="cls-10" points="267.3 326.12 267.3 378.62 263.66 378.62"/>
    <line class="cls-10" x1="378.33" y1="299.81" x2="306.48" y2="299.81"/>
    <polyline class="cls-10" points="84.9 329.52 125.38 329.43 125.41 299.84 112 299.84"/>
    <line class="cls-10" x1="59.66" y1="329.55" x2="76.73" y2="329.52"/>
    <line class="cls-10" x1="125.39" y1="336.04" x2="125.39" y2="372.53"/>
    <line class="cls-10" x1="125.44" y1="406.47" x2="125.44" y2="378.14"/>
    <line class="cls-10" x1="56.98" y1="450.21" x2="116.48" y2="450.21"/>
    <line class="cls-10" x1="365.97" y1="289.84" x2="411.69" y2="289.84"/>
    <line class="cls-10" x1="170.9" y1="430.16" x2="216.83" y2="430.16"/>
    <line class="cls-10" x1="141.57" y1="430.16" x2="162.62" y2="430.16"/>
    <polyline class="cls-10" points="267.37 394.54 267.37 390.51 233.21 390.51 233.21 378.59 202.17 378.59 202.17 401.74 125.49 401.74 125.49 430.15 132.94 430.15"/>
    <polyline class="cls-10" points="225.29 430.16 267.33 430.16 267.36 401.08"/>
    <line class="cls-10" x1="400.56" y1="374.5" x2="400.56" y2="347.18"/>
    <polyline class="cls-10" points="171.19 299.87 267.33 299.87 267.33 317.05"/>
    <line class="cls-10" x1="178.43" y1="278.41" x2="206.66" y2="278.41"/>
    <line class="cls-10" x1="169.29" y1="299.81" x2="169.29" y2="277.54"/>
    <line class="cls-10" x1="223.76" y1="288.19" x2="223.8" y2="276.07"/>
    <polyline class="cls-10" points="223.8 269.84 223.81 263.87 206.43 263.87 206.36 299.88 223.74 299.88 223.76 294.33"/>
    <line class="cls-10" x1="179.05" y1="259.13" x2="224.47" y2="259.13"/>
    <line class="cls-10" x1="206.44" y1="282.11" x2="224.25" y2="282.11"/>
    <polyline class="cls-10" points="171.54 299.87 145.59 299.87 145.59 295.3"/>
    <polyline class="cls-10" points="145.58 295.3 145.58 266.02 169.28 266.02 169.28 271.22"/>
    <line class="cls-10" x1="179.29" y1="258.32" x2="179.29" y2="271.22"/>
    <line class="cls-10" x1="206.43" y1="258.31" x2="206.43" y2="264.6"/>
    <line class="cls-10" x1="223.81" y1="258.31" x2="223.81" y2="264.6"/>
    <polyline class="cls-11" points="410.3 308.05 410.3 300.32 465.87 300.32 465.87 324.95 410.3 324.95 410.3 317.49"/>
    <line class="cls-12" x1="238.68" y1="292.56" x2="229.31" y2="292.56"/>
    <polyline class="cls-12" points="272.99 292.56 276.72 292.56 276.72 309.45"/>
    <polyline class="cls-13" points="236.38 289.81 239.13 292.65 236.54 295.32"/>
    <polyline class="cls-13" points="279.51 306.84 276.75 309.68 274.16 307.01"/>
    <polyline class="cls-14" points="378.09 295.06 361.45 295.06 361.45 285.31 400.69 285.31 400.69 279.44"/>
    <polyline class="cls-13" points="375.54 292.27 378.38 295.02 375.7 297.62"/>
    <line class="cls-13" x1="378.78" y1="319.13" x2="392.17" y2="319.13"/>
    <line class="cls-13" x1="378.63" y1="314.18" x2="392.59" y2="314.18"/>
    <rect class="cls-13" x="378.52" y="309.95" width="13.81" height="17.88"/>
    <line class="cls-13" x1="385.32" y1="327.65" x2="385.32" y2="309.96"/>
    <line class="cls-13" x1="378.76" y1="323.42" x2="392.15" y2="323.42"/>
    <line class="cls-13" x1="134.94" y1="319.13" x2="148.33" y2="319.13"/>
    <line class="cls-13" x1="134.79" y1="314.18" x2="148.75" y2="314.18"/>
    <rect class="cls-13" x="134.68" y="309.95" width="13.81" height="17.88"/>
    <line class="cls-13" x1="141.48" y1="327.65" x2="141.48" y2="309.96"/>
    <line class="cls-13" x1="134.91" y1="323.42" x2="148.3" y2="323.42"/>
    <line class="cls-15" x1="201.75" y1="459.1" x2="220.37" y2="459.1"/>
    <line class="cls-15" x1="201.75" y1="474.03" x2="220.37" y2="474.03"/>
    <line class="cls-15" x1="205.05" y1="449.95" x2="205.05" y2="483.35"/>
    <line class="cls-15" x1="209" y1="449.95" x2="209" y2="483.35"/>
    <line class="cls-15" x1="212.95" y1="449.95" x2="212.95" y2="483.35"/>
    <line class="cls-15" x1="216.91" y1="449.95" x2="216.91" y2="483.35"/>
    <line class="cls-13" x1="327.12" y1="391.46" x2="327.12" y2="404.39"/>
    <line class="cls-13" x1="330.54" y1="391.31" x2="330.54" y2="404.79"/>
    <rect class="cls-13" x="321.13" y="391.2" width="12.32" height="13.34"/>
    <line class="cls-13" x1="321.26" y1="397.77" x2="333.45" y2="397.77"/>
    <line class="cls-13" x1="324.17" y1="391.43" x2="324.17" y2="404.36"/>
    <line class="cls-13" x1="386.17" y1="398.15" x2="386.17" y2="390.44"/>
    <line class="cls-13" x1="381.21" y1="398.24" x2="381.21" y2="390.2"/>
    <rect class="cls-13" x="376.99" y="390.35" width="17.88" height="7.95"/>
    <line class="cls-13" x1="390.46" y1="398.17" x2="390.46" y2="390.46"/>
    <line class="cls-13" x1="438.08" y1="317.26" x2="426.29" y2="332.65"/>
    <line class="cls-13" x1="68.19" y1="292.27" x2="76.73" y2="310.11"/>
  </g>
  <g id="colors">
    <rect class="cls-16" x="179.29" y="259.43" width="26.74" height="18.38"/>
    <rect class="cls-17" x="206.18" y="263.52" width="16.82" height="36.88"/>
    <rect class="cls-18" x="233.21" y="378.62" width="16.74" height="11.89"/>
    <rect class="cls-19" x="308.9" y="415.62" width="12.41" height="15.35"/>
    <rect class="cls-20" x="141.77" y="204.92" width="244.4" height="50.34"/>
    <rect class="cls-20" x="269.48" y="313.88" width="34.16" height="120.38"/>
    <rect class="cls-21" x="145.58" y="266.02" width="23.25" height="33.95"/>
    <rect class="cls-22" x="355.43" y="405.4" width="20.52" height="25.57"/>
    <rect class="cls-23" x="202.7" y="300.06" width="64.6" height="78.56"/>
    <rect class="cls-23" x="306.48" y="306.84" width="75.34" height="77.51"/>
    <rect class="cls-23" x="153.79" y="141.41" width="224.81" height="55.18"/>
    <rect class="cls-24" x="410.82" y="298.72" width="58.25" height="26.23"/>
    <rect class="cls-20" x="400.56" y="324.95" width="70.23" height="157.63"/>
    <rect class="cls-25" x="57.52" y="299.93" width="67.86" height="28.81"/>
    <polygon class="cls-26" points="354.64 404.95 354.47 424.58 321.56 424.58 321.55 415.81 308.89 415.81 308.89 404.89 354.64 404.95"/>
    <polygon class="cls-25" points="202.19 378.62 202.17 401.74 126.19 401.74 125.29 429.57 267.33 430.16 267.37 390.51 233.21 390.51 233.21 378.62 202.19 378.62"/>
    <rect class="cls-27" x="232.25" y="450.89" width="142.78" height="34.46"/>
    <rect class="cls-28" x="57.52" y="450.89" width="110.95" height="34.46"/>
    <rect class="cls-23" x="125.38" y="299.93" width="75.36" height="102.16"/>
    <rect class="cls-20" x="59.66" y="331.63" width="63" height="118.63"/>
  </g>
  <g id="symbols">
    <text class="cls-29" transform="translate(310.78 427.83) scale(1 1.01)">E</text>
    <text class="cls-30" transform="translate(238.37 388.82) scale(1 1.01)">E</text>
    <text class="cls-29" transform="translate(210.34 277.1) scale(1 1.01)">E</text>
    <text class="cls-29" transform="translate(210.34 295.19) scale(1 1.01)">E</text>
    <text class="cls-31" transform="translate(331.92 420.02) scale(1 1.01)">W</text>
    <text class="cls-31" transform="translate(151.52 284.41) scale(1 1.01)">W</text>
    <text class="cls-31" transform="translate(360.59 423.29) scale(1 1.01)">M</text>
    <text class="cls-31" transform="translate(187.37 272.5) scale(1 1.01)">M</text>
    <text class="cls-32" transform="translate(352.54 403.72)">S</text>
    <g id="O">
      <circle class="cls-33" cx="259.72" cy="271.22" r="6.78" onclick="switchInfo('Service Phone', '');"/>
      <circle class="cls-33" cx="454.36" cy="367.62" r="6.78" onclick="switchInfo('Reading Room', 'Very spacious and all tables are at a good height');"/>
      <circle class="cls-33" cx="347.69" cy="299.84" r="6.78" onclick="switchInfo('Ramp', 'There are no stairs between the front wing and the back wing, just ramps for everyone/'s convenience');"/>
      <circle class="cls-33" cx="132.32" cy="208.58" r="6.78" onclick="switchInfo('Study Carrels', 'Accessible study carrels may be reserved for people with disabilities');"/>
    </g>
    <g id="X">
      <polygon class="cls-34" points="255.91 203.79 253.67 201.55 258.64 196.59 253.67 191.62 255.91 189.38 260.88 194.35 265.84 189.38 268.08 191.62 263.11 196.59 268.08 201.55 265.84 203.79 260.88 198.65 255.91 203.79" onclick="switchInfo('Moveable stacks', 'Assistance may be needed for the moveable stacks, as they must be turned on spokes with considerable strength, and the aisles are very narrow');"/>
      <polygon class="cls-34" points="183.57 403.03 181.34 400.79 186.3 395.83 181.34 390.86 183.57 388.62 188.54 393.59 193.5 388.62 195.74 390.86 190.77 395.83 195.74 400.79 193.5 403.03 188.54 397.88 183.57 403.03" onclick="switchInfo('GIS and Spatial Data Services', 'Assistance is needed to access information in this area but there is not always someone readily available');"/>
      <polygon class="cls-34" points="244.99 361.49 242.75 359.25 247.72 354.29 242.75 349.32 244.99 347.08 249.95 352.05 254.92 347.08 257.15 349.32 252.19 354.29 257.15 359.25 254.92 361.49 249.95 356.34 244.99 361.49" onclick="switchInfo('Study Lounge', 'Desks in the study lounge are very low');"/>
      <polygon class="cls-34" points="400.38 456.59 398.14 454.36 403.11 449.39 398.14 444.43 400.38 442.19 405.35 447.15 410.31 442.19 412.55 444.43 407.58 449.39 412.55 454.36 410.31 456.59 405.35 451.45 400.38 456.59" onclick="switchInfo('Reading Room', 'Door handle may be too high for some, and only one door opens');"/>
      <polygon class="cls-34" points="317.94 335.94 315.71 333.7 320.67 328.74 315.71 323.77 317.94 321.54 322.91 326.5 327.88 321.54 330.11 323.77 325.14 328.74 330.11 333.7 327.88 335.94 322.91 330.8 317.94 335.94" onclick="switchInfo('Reference Books', 'The placement of shelves in this area make it hard to navigate or get through with a wheelchair');"/>
      <polygon class="cls-34" points="71.76 372.41 69.52 370.17 74.49 365.21 69.52 360.24 71.76 358.01 76.72 362.97 81.69 358.01 83.93 360.24 78.96 365.21 83.93 370.17 81.69 372.41 76.72 367.27 71.76 372.41" onclick="switchInfo('Research Commons', 'Individual study booths are low in height');"/>
    </g>
    <text class="cls-32" transform="translate(224.27 285.05)">S</text>
  </g>
  <g id="text">
    <g class="cls-35">
      <text class="cls-36" transform="translate(484.43 482.05) rotate(-90)">F<tspan class="cls-37" x="18.88" y="0">R</tspan><tspan class="cls-38" x="38.5" y="0">ON</tspan><tspan class="cls-39" x="81.38" y="0">T</tspan><tspan class="cls-40" x="100.4" y="0"> </tspan><tspan class="cls-38" x="115.06" y="0">W</tspan><tspan class="cls-39" x="138.85" y="0">I</tspan><tspan class="cls-38" x="154.36" y="0">N</tspan><tspan class="cls-41" x="175.58" y="0">G</tspan></text>
    </g>
    <text class="cls-42" transform="translate(427.66 268.23) rotate(-90)"><tspan class="cls-43">B</tspan><tspan class="cls-44" x="19.65" y="0">A</tspan><tspan class="cls-43" x="40.03" y="0">CK</tspan><tspan class="cls-45" x="79.84" y="0"> </tspan><tspan class="cls-43" x="94.5" y="0">W</tspan><tspan class="cls-39" x="118.29" y="0">I</tspan><tspan class="cls-43" x="133.8" y="0">N</tspan><tspan x="155.02" y="0">G</tspan></text>
    <text class="cls-46" transform="translate(58.44 55)"><tspan class="cls-47">M</tspan><tspan x="14.58" y="0">cKeldin - </tspan><tspan class="cls-48" x="83.18" y="0">F</tspan><tspan x="91.64" y="0">loor 4</tspan></text>
    <text class="cls-49" transform="translate(240.86 296.13) scale(1 1.01)"><tspan class="cls-50">R</tspan><tspan class="cls-51" x="5.86" y="0">A</tspan><tspan x="12.41" y="0">MP</tspan></text>
    <text class="cls-49" transform="translate(380.58 300.6) scale(1 1.01)"><tspan class="cls-50">R</tspan><tspan class="cls-51" x="5.86" y="0">A</tspan><tspan x="12.41" y="0">MP</tspan></text>
    <text class="cls-52" transform="translate(65.19 465.29)"><tspan class="cls-53">P</tspan><tspan x="5.68" y="0">ublic </tspan><tspan class="cls-54" x="30.2" y="0">S</tspan><tspan x="35.63" y="0">e</tspan><tspan class="cls-55" x="41.09" y="0">r</tspan><tspan x="44.9" y="0">vi</tspan><tspan class="cls-56" x="52.69" y="0">c</tspan><tspan x="57.49" y="0">es Office </tspan></text>
    <text class="cls-57" transform="translate(129.41 420.02)">GI<tspan class="cls-58" x="10.4" y="0">S</tspan><tspan class="cls-59" x="16.19" y="0" xml:space="preserve"> &amp; Sp</tspan><tspan class="cls-60" x="40.72" y="0">a</tspan><tspan x="46.3" y="0">t</tspan><tspan class="cls-61" x="50.17" y="0">i</tspan><tspan x="52.85" y="0">al D</tspan><tspan class="cls-62" x="71.56" y="0">a</tspan><tspan class="cls-61" x="77.15" y="0">t</tspan><tspan x="81" y="0">a </tspan><tspan class="cls-63" x="89.11" y="0">S</tspan><tspan x="94.98" y="0">e</tspan><tspan class="cls-64" x="100.88" y="0">r</tspan><tspan class="cls-59" x="104.95" y="0">vi</tspan><tspan class="cls-65" x="113.3" y="0">c</tspan><tspan class="cls-59" x="118.46" y="0">e</tspan><tspan class="cls-66" x="124.36" y="0">s</tspan></text>
    <text class="cls-52" transform="translate(411.83 339.34)"><tspan class="cls-67">T</tspan><tspan x="4.58" y="0">eaching</tspan></text>
    <text class="cls-52" transform="translate(407.51 350.24)">&amp; <tspan class="cls-53" x="8.91" y="0">L</tspan><tspan x="13.93" y="0">earning</tspan></text>
    <text class="cls-52" transform="translate(413.67 361.14)"><tspan class="cls-68">S</tspan><tspan class="cls-69" x="5.44" y="0">e</tspan><tspan class="cls-70" x="10.9" y="0">r</tspan><tspan class="cls-69" x="14.7" y="0">vi</tspan><tspan class="cls-71" x="22.5" y="0">c</tspan><tspan x="27.28" y="0">es</tspan></text>
    <text class="cls-72" transform="translate(205.56 176.55)">SU DOCS A - Z</text>
    <text class="cls-42" transform="translate(166.81 219.22)">US G<tspan class="cls-73" x="27.22" y="0">O</tspan><tspan class="cls-74" x="36.57" y="0">V</tspan><tspan class="cls-75" x="44.4" y="0">’</tspan><tspan x="47.58" y="0">T INFO</tspan></text>
    <text class="cls-42" transform="translate(171.59 232.84)">REFERENCE &amp;</text>
    <text class="cls-42" transform="translate(176.1 246.47)">SU DOCS<tspan class="cls-76" x="51.5" y="0"> </tspan><tspan class="cls-41" x="53.82" y="0">Y1</tspan></text>
    <text class="cls-42" transform="translate(318.92 239.82)"><tspan class="cls-77">M</tspan><tspan x="10.87" y="0">APS</tspan></text>
    <text class="cls-42" transform="translate(219.24 330.36)"><tspan class="cls-78">S</tspan><tspan x="6.66" y="0">tudy</tspan></text>
    <text class="cls-42" transform="translate(214.06 343.98)"><tspan class="cls-79">L</tspan><tspan x="6.29" y="0">ounge</tspan></text>
    <text class="cls-52" transform="translate(256.49 465.52)">Humanities &amp; <tspan class="cls-80" x="63.21" y="0">S</tspan><tspan x="68.64" y="0">ocial </tspan></text>
    <text class="cls-52" transform="translate(259.72 476.42)"><tspan class="cls-68">S</tspan><tspan x="5.44" y="0">cien</tspan><tspan class="cls-81" x="24.38" y="0">c</tspan><tspan x="29.18" y="0">es Lib</tspan><tspan class="cls-82" x="55.16" y="0">r</tspan><tspan x="58.63" y="0">arians</tspan></text>
    <text class="cls-42" transform="translate(315.52 351.58)">REFERENCE</text>
    <text class="cls-42" transform="translate(328.37 365.21)">BOOKS</text>
    <text class="cls-83" transform="translate(61.32 266.53)">R<tspan class="cls-84" x="5.9" y="0">esea</tspan><tspan class="cls-56" x="26.39" y="0">r</tspan><tspan class="cls-84" x="29.87" y="0">ch</tspan></text>
    <text class="cls-52" transform="translate(58.66 277.43)"><tspan class="cls-85">C</tspan><tspan x="6.15" y="0">ommons</tspan></text>
    <text class="cls-52" transform="translate(50.15 288.33)">Headqua<tspan class="cls-55" x="41.36" y="0">r</tspan><tspan class="cls-86" x="45.17" y="0">t</tspan><tspan x="48.72" y="0">ers</tspan></text>
    <text class="cls-42" transform="translate(410.59 393.56)"><tspan class="cls-87">R</tspan><tspan x="7.37" y="0">eading </tspan></text>
    <text class="cls-42" transform="translate(419.01 407.19)"><tspan class="cls-87">R</tspan><tspan x="7.37" y="0">oom</tspan></text>
    <text class="cls-42" transform="translate(65.59 384.69)"><tspan class="cls-87">R</tspan><tspan x="7.37" y="0">esea</tspan><tspan class="cls-88" x="32.99" y="0">r</tspan><tspan x="37.33" y="0">ch</tspan></text>
    <text class="cls-89" transform="translate(62.27 398.32)">C<tspan class="cls-90" x="7.68" y="0">ommons</tspan></text>
  </g>
  <g id="KEY">
    <text class="cls-46" transform="translate(458 55)"><tspan class="cls-47">M</tspan><tspan x="14.58" y="0">ap Key</tspan></text>
    <rect class="cls-23" x="459.53" y="93.62" width="15.3" height="15.3"/>
    <rect class="cls-91" x="459.53" y="120.59" width="15.3" height="15.3"/>
    <rect class="cls-20" x="459.53" y="67.52" width="15.3" height="15.3"/>
    <rect class="cls-92" x="459.53" y="147.43" width="15.3" height="15.3"/>
    <text class="cls-93" transform="translate(481.59 77.59)">Easily <tspan class="cls-94" x="35.32" y="0">A</tspan><tspan class="cls-95" x="43.72" y="0">cc</tspan><tspan x="56.1" y="0">essible</tspan></text>
    <text class="cls-93" transform="translate(481.59 103.68)">Not Easily <tspan class="cls-94" x="59.82" y="0">A</tspan><tspan class="cls-95" x="68.22" y="0">cc</tspan><tspan x="80.6" y="0">essible</tspan></text>
    <text class="cls-93" transform="translate(481.59 130.65)"><tspan class="cls-96">R</tspan><tspan x="7.59" y="0">esou</tspan><tspan class="cls-97" x="35.55" y="0">r</tspan><tspan class="cls-95" x="39.98" y="0">c</tspan><tspan x="46.17" y="0">es</tspan></text>
    <text class="cls-32" transform="translate(464.14 158.73)">E</text>
    <text class="cls-93" transform="translate(481.59 157.5)">Ele<tspan class="cls-98" x="17.21" y="0">va</tspan><tspan class="cls-95" x="30.58" y="0">t</tspan><tspan class="cls-99" x="35.13" y="0">or</tspan></text>
    <text class="cls-93" transform="translate(481.59 184.34)"><tspan class="cls-96">R</tspan><tspan x="7.59" y="0">est</tspan><tspan class="cls-97" x="24.78" y="0">r</tspan><tspan x="29.22" y="0">oom</tspan></text>
    <rect class="cls-100" x="459.53" y="174.28" width="15.28" height="15.28"/>
    <rect class="cls-101" x="465.64" y="177.27" width="3.08" height="3.08" rx="1.54" ry="1.54"/>
    <polygon class="cls-101" points="464.84 186.53 467.18 178.81 469.52 186.53 464.84 186.53"/>
    <rect class="cls-101" x="464.46" y="180.35" width="5.43" height="0.89"/>
    <text class="cls-32" transform="translate(464.14 212.4)">S</text>
    <text class="cls-93" transform="translate(481.59 211.17)">Clear Si<tspan class="cls-95" x="42.91" y="0">g</tspan><tspan x="50.65" y="0">nage</tspan></text>
    <text class="cls-93" transform="translate(481.59 238.02)"><tspan class="cls-102">G</tspan><tspan x="9.11" y="0">ood No</tspan><tspan class="cls-95" x="52.25" y="0">t</tspan><tspan x="56.8" y="0">e</tspan></text>
    <text class="cls-93" transform="translate(481.59 264.86)">Bad No<tspan class="cls-95" x="42.1" y="0">t</tspan><tspan x="46.65" y="0">e</tspan></text>
    <circle class="cls-33" cx="467.17" cy="235.6" r="6.78"/>
    <polygon class="cls-34" points="462.21 269.65 459.98 267.41 464.94 262.44 459.98 257.48 462.21 255.24 467.18 260.21 472.15 255.24 474.38 257.48 469.42 262.44 474.38 267.41 472.15 269.65 467.18 264.5 462.21 269.65"/>
  </g>
</svg>
