<svg xmlns="http://www.w3.org/2000/svg" xmlns:xlink="http://www.w3.org/1999/xlink" viewBox="0 0 648 648">
  <script xlink:href="./index.js" />
  <defs>
    <style>
      .cls-1, .cls-10, .cls-11, .cls-3, .cls-4, .cls-5, .cls-6, .cls-7, .cls-8, .cls-9 {
        fill: none;
      }

      .cls-2 {
        fill: #fff;
        opacity: 0.82;
      }

      .cls-10, .cls-11, .cls-3, .cls-4, .cls-5, .cls-6, .cls-7, .cls-8, .cls-9 {
        stroke: #231f20;
      }

      .cls-3 {
        stroke-width: 1.65px;
      }

      .cls-4 {
        stroke-width: 4.95px;
      }

      .cls-5 {
        stroke-width: 0.83px;
      }

      .cls-6 {
        stroke-width: 0.83px;
      }

      .cls-7 {
        stroke-width: 0.84px;
      }

      .cls-8 {
        stroke-width: 0.89px;
      }

      .cls-9 {
        stroke-width: 0.82px;
      }

      .cls-10 {
        stroke-width: 1.38px;
      }

      .cls-11 {
        stroke-width: 0.85px;
      }

      .cls-12, .cls-17, .cls-18, .cls-24, .cls-61 {
        fill: #666;
      }

      .cls-12, .cls-13, .cls-14, .cls-15, .cls-17, .cls-18, .cls-20, .cls-21, .cls-52, .cls-53, .cls-61 {
        stroke: #000;
      }

      .cls-12, .cls-13, .cls-14, .cls-15, .cls-17, .cls-18, .cls-20, .cls-21, .cls-25, .cls-52, .cls-53, .cls-61 {
        stroke-miterlimit: 10;
      }

      .cls-12 {
        stroke-width: 0.43px;
      }

      .cls-12, .cls-16, .cls-17, .cls-18, .cls-61 {
        opacity: 0.3;
      }

      .cls-13, .cls-14, .cls-15, .cls-25, .cls-26, .cls-53 {
        fill: #0060ff;
      }

      .cls-13 {
        stroke-width: 0.48px;
      }

      .cls-13, .cls-14, .cls-15, .cls-53 {
        opacity: 0.4;
      }

      .cls-14 {
        stroke-width: 0.51px;
      }

      .cls-15 {
        stroke-width: 0.52px;
      }

      .cls-16 {
        fill: #00caff;
      }

      .cls-17 {
        stroke-width: 0.54px;
      }

      .cls-18 {
        stroke-width: 0.42px;
      }

      .cls-19, .cls-27 {
        fill: red;
      }

      .cls-19, .cls-20, .cls-21, .cls-52 {
        opacity: 0.2;
      }

      .cls-20, .cls-21, .cls-52 {
        fill: #ff0;
      }

      .cls-20 {
        stroke-width: 0.22px;
      }

      .cls-21 {
        stroke-width: 0.23px;
      }

      .cls-22, .cls-24 {
        font-size: 13.43px;
      }

      .cls-22, .cls-23 {
        fill: blue;
      }

      .cls-22, .cls-23, .cls-24 {
        font-family: MyriadPro-Bold, Myriad Pro;
        font-weight: 700;
      }

      .cls-23 {
        font-size: 10.75px;
      }

      .cls-25 {
        font-size: 12px;
        stroke: #0060ff;
      }

      .cls-25, .cls-53 {
        stroke-width: 0.5px;
      }

      .cls-25, .cls-29, .cls-35, .cls-39, .cls-42, .cls-43, .cls-47, .cls-50, .cls-54 {
        font-family: MyriadPro-Regular, Myriad Pro;
      }

      .cls-28 {
        clip-path: url(#clip-path);
      }

      .cls-29, .cls-35 {
        font-size: 13.63px;
      }

      .cls-29, .cls-35, .cls-42, .cls-43, .cls-50 {
        fill: #231f20;
      }

      .cls-29 {
        letter-spacing: 0.9em;
      }

      .cls-30 {
        letter-spacing: 0.9em;
      }

      .cls-31 {
        letter-spacing: 0.9em;
      }

      .cls-32 {
        letter-spacing: 0.9em;
      }

      .cls-33 {
        letter-spacing: 0.86em;
      }

      .cls-34 {
        letter-spacing: 0em;
      }

      .cls-36 {
        letter-spacing: 0.9em;
      }

      .cls-37 {
        letter-spacing: 0.88em;
      }

      .cls-38 {
        letter-spacing: 0.86em;
      }

      .cls-39 {
        font-size: 18px;
      }

      .cls-40 {
        letter-spacing: 0.01em;
      }

      .cls-41 {
        letter-spacing: -0.02em;
      }

      .cls-42, .cls-47 {
        font-size: 18.86px;
      }

      .cls-43, .cls-50 {
        font-size: 13.75px;
      }

      .cls-44 {
        letter-spacing: 0.01em;
      }

      .cls-45 {
        letter-spacing: 0.01em;
      }

      .cls-46, .cls-50 {
        letter-spacing: 0.01em;
      }

      .cls-48 {
        letter-spacing: 0.01em;
      }

      .cls-49 {
        letter-spacing: 0.01em;
      }

      .cls-51 {
        letter-spacing: 0em;
      }

      .cls-52 {
        stroke-width: 0.21px;
      }

      .cls-54 {
        font-size: 14px;
      }

      .cls-55 {
        letter-spacing: -0.01em;
      }

      .cls-56 {
        letter-spacing: -0.01em;
      }

      .cls-57 {
        letter-spacing: 0em;
      }

      .cls-58 {
        letter-spacing: -0.01em;
      }

      .cls-59 {
        letter-spacing: 0em;
      }

      .cls-60 {
        letter-spacing: 0em;
      }

      .cls-61 {
        stroke-width: 0.15px;
      }

      .cls-62 {
        fill: #989898;
      }

      .cls-63 {
        letter-spacing: 0em;
      }

      #O, #X {
        cursor: pointer;
      }
    </style>
    <clipPath id="clip-path">
      <rect class="cls-1" x="42.84" y="94.38" width="444.18" height="441.41"/>
    </clipPath>
  </defs>
  <title>mck-floor3</title>
  <g id="Layer_7" data-name="Layer 7">
    <rect class="cls-2" x="23.3" y="42.59" width="559.21" height="540.64"/>
  </g>
  <g id="lines">
    <polyline class="cls-3" points="249.85 384.67 249.85 380.82 228.7 380.82 228.7 393.06 249.85 393.06 249.85 389.42"/>
    <line class="cls-3" x1="162.33" y1="300.16" x2="290.14" y2="300.16"/>
    <polyline class="cls-3" points="364.11 449.23 354.76 449.23 354.76 484.63"/>
    <polyline class="cls-3" points="166.88 278.51 185.42 278.51 198.12 278.51"/>
    <line class="cls-3" x1="160.82" y1="300.98" x2="160.82" y2="277.64"/>
    <line class="cls-3" x1="379.32" y1="283.81" x2="379.32" y2="328.82"/>
    <line class="cls-3" x1="215.38" y1="288.34" x2="215.41" y2="275.5"/>
    <polyline class="cls-3" points="215.41 269.67 215.43 263.83 197.88 263.83 197.81 300.17 215.36 300.17 215.38 294.15"/>
    <line class="cls-3" x1="188.68" y1="470.67" x2="188.68" y2="483.63"/>
    <line class="cls-3" x1="188.68" y1="451.13" x2="188.68" y2="464.3"/>
    <polyline class="cls-3" points="167.72 269.92 167.72 259.2 215.44 259.2 215.44 264.2"/>
    <line class="cls-3" x1="197.89" y1="282.24" x2="215.87" y2="282.24"/>
    <line class="cls-3" x1="291.9" y1="449.73" x2="291.9" y2="482.94"/>
    <polyline class="cls-3" points="160.9 269.92 160.9 259.26 139.07 259.26 139.07 300.17 162.94 300.17"/>
    <rect class="cls-3" x="404.03" y="332.03" width="64.48" height="117.15"/>
    <rect class="cls-3" x="57.52" y="334.35" width="63.33" height="117.15"/>
    <polygon class="cls-3" points="151.49 451.49 151.49 434.09 374.87 434.09 374.87 450.33 393.29 450.33 393.29 483.97 228.28 483.97 228.28 451.44 151.49 451.49"/>
    <line class="cls-3" x1="368.87" y1="300.14" x2="379.13" y2="300.14"/>
    <line class="cls-3" x1="308.27" y1="300.14" x2="358.09" y2="300.14"/>
    <line class="cls-3" x1="120.79" y1="299.74" x2="120.79" y2="313.06"/>
    <line class="cls-3" x1="120.84" y1="322.72" x2="120.84" y2="333.71"/>
    <line class="cls-3" x1="197.87" y1="259.23" x2="197.87" y2="265.15"/>
    <polyline class="cls-3" points="307.71 425.63 307.71 434.1 320.47 434.1 320.47 412.72 307.71 412.72 307.71 420.53"/>
    <line class="cls-3" x1="307.71" y1="399.66" x2="307.71" y2="412.72"/>
    <polyline class="cls-3" points="346.4 389.17 307.71 389.17 307.71 394.77"/>
    <polyline class="cls-3" points="320.48 405.26 320.48 424.37 355.32 424.37 355.32 389.17 352.05 389.17"/>
    <polyline class="cls-3" points="361.96 389.16 377.6 389.16 377.6 415.87 354.56 415.87"/>
    <line class="cls-3" x1="146.21" y1="434.19" x2="120.78" y2="434.19"/>
    <line class="cls-3" x1="121.27" y1="451.48" x2="146.17" y2="451.48"/>
    <line class="cls-3" x1="411.51" y1="299.74" x2="411.51" y2="323.96"/>
    <polygon class="cls-4" points="56.04 298.46 119.26 298.46 119.26 261.16 112.44 261.1 112.44 106.17 412.98 106.17 412.98 298.46 470.22 298.46 470.22 485.35 56.04 485.35 56.04 298.46"/>
    <line class="cls-5" x1="185.12" y1="126.36" x2="185.12" y2="107.53"/>
    <line class="cls-5" x1="171.78" y1="126.36" x2="171.78" y2="107.53"/>
    <line class="cls-5" x1="158.45" y1="126.36" x2="158.45" y2="107.53"/>
    <line class="cls-5" x1="225.13" y1="126.36" x2="225.13" y2="107.53"/>
    <line class="cls-5" x1="211.79" y1="126.36" x2="211.79" y2="107.53"/>
    <line class="cls-5" x1="198.46" y1="126.36" x2="198.46" y2="107.53"/>
    <line class="cls-5" x1="327.07" y1="126.36" x2="327.07" y2="107.53"/>
    <line class="cls-5" x1="313.74" y1="126.36" x2="313.74" y2="107.53"/>
    <line class="cls-5" x1="300.4" y1="126.36" x2="300.4" y2="107.53"/>
    <line class="cls-5" x1="367.08" y1="126.36" x2="367.08" y2="107.53"/>
    <line class="cls-5" x1="353.75" y1="126.36" x2="353.75" y2="107.53"/>
    <line class="cls-5" x1="340.41" y1="126.36" x2="340.41" y2="107.53"/>
    <line class="cls-5" x1="287.47" y1="126.36" x2="287.47" y2="107.53"/>
    <line class="cls-5" x1="112.6" y1="243.86" x2="131.43" y2="243.86"/>
    <line class="cls-5" x1="112.6" y1="229.01" x2="131.43" y2="229.01"/>
    <line class="cls-5" x1="112.6" y1="214.9" x2="131.43" y2="214.9"/>
    <line class="cls-5" x1="112.6" y1="168.94" x2="131.43" y2="168.94"/>
    <line class="cls-5" x1="112.6" y1="154.09" x2="131.43" y2="154.09"/>
    <line class="cls-5" x1="112.6" y1="139.98" x2="131.43" y2="139.98"/>
    <line class="cls-5" x1="392.68" y1="243.86" x2="411.51" y2="243.86"/>
    <line class="cls-5" x1="392.68" y1="229.01" x2="411.51" y2="229.01"/>
    <line class="cls-5" x1="392.68" y1="214.9" x2="411.51" y2="214.9"/>
    <line class="cls-5" x1="120.37" y1="457.58" x2="113.08" y2="457.58"/>
    <line class="cls-5" x1="120.46" y1="461.03" x2="112.85" y2="461.03"/>
    <rect class="cls-5" x="112.99" y="451.53" width="7.52" height="12.43"/>
    <line class="cls-5" x1="120.39" y1="454.6" x2="113.09" y2="454.6"/>
    <polyline class="cls-5" points="308.51 412.72 320.49 412.72 320.49 434.09 308.51 434.09"/>
    <line class="cls-5" x1="188.16" y1="279.28" x2="188.16" y2="300.33"/>
    <line class="cls-5" x1="193.16" y1="279.05" x2="193.16" y2="300.63"/>
    <rect class="cls-5" x="179.38" y="278.87" width="18.05" height="21.71"/>
    <line class="cls-5" x1="179.57" y1="289.56" x2="197.43" y2="289.56"/>
    <line class="cls-5" x1="183.83" y1="279.24" x2="183.83" y2="300.29"/>
    <line class="cls-5" x1="400.33" y1="467.67" x2="393.04" y2="467.67"/>
    <line class="cls-5" x1="400.41" y1="471.11" x2="392.8" y2="471.11"/>
    <rect class="cls-5" x="392.95" y="461.61" width="7.52" height="12.43"/>
    <line class="cls-5" x1="400.35" y1="464.69" x2="393.05" y2="464.69"/>
    <line class="cls-5" x1="326.1" y1="389.99" x2="326.1" y2="404.49"/>
    <line class="cls-5" x1="329.54" y1="389.83" x2="329.54" y2="404.95"/>
    <rect class="cls-5" x="320.05" y="389.71" width="12.43" height="14.95"/>
    <line class="cls-5" x1="320.18" y1="397.07" x2="332.48" y2="397.07"/>
    <line class="cls-5" x1="323.12" y1="389.97" x2="323.12" y2="404.46"/>
    <line class="cls-5" x1="387.25" y1="397.48" x2="387.25" y2="388.83"/>
    <line class="cls-5" x1="382.26" y1="397.57" x2="382.26" y2="388.56"/>
    <rect class="cls-5" x="377.99" y="388.73" width="18.04" height="8.91"/>
    <line class="cls-5" x1="391.59" y1="397.49" x2="391.59" y2="388.85"/>
    <line class="cls-5" x1="139.75" y1="397.48" x2="139.75" y2="388.83"/>
    <line class="cls-5" x1="134.76" y1="397.57" x2="134.76" y2="388.56"/>
    <rect class="cls-5" x="130.49" y="388.73" width="18.04" height="8.91"/>
    <line class="cls-5" x1="144.08" y1="397.49" x2="144.08" y2="388.85"/>
    <line class="cls-5" x1="198.9" y1="460.48" x2="217.69" y2="460.48"/>
    <line class="cls-5" x1="198.9" y1="474.5" x2="217.69" y2="474.5"/>
    <line class="cls-5" x1="202.22" y1="451.88" x2="202.22" y2="483.26"/>
    <line class="cls-5" x1="206.21" y1="451.88" x2="206.21" y2="483.26"/>
    <line class="cls-5" x1="210.2" y1="451.88" x2="210.2" y2="483.26"/>
    <line class="cls-5" x1="214.19" y1="451.88" x2="214.19" y2="483.26"/>
    <line class="cls-5" x1="379.97" y1="319.63" x2="393.49" y2="319.63"/>
    <line class="cls-5" x1="379.82" y1="314.63" x2="393.91" y2="314.63"/>
    <rect class="cls-5" x="379.71" y="310.37" width="13.94" height="18.05"/>
    <line class="cls-5" x1="386.57" y1="328.23" x2="386.57" y2="310.37"/>
    <line class="cls-5" x1="379.95" y1="323.96" x2="393.46" y2="323.96"/>
    <line class="cls-5" x1="132.32" y1="319.63" x2="145.84" y2="319.63"/>
    <line class="cls-5" x1="132.17" y1="314.63" x2="146.26" y2="314.63"/>
    <rect class="cls-5" x="132.06" y="310.37" width="13.94" height="18.05"/>
    <line class="cls-5" x1="138.92" y1="328.23" x2="138.92" y2="310.37"/>
    <line class="cls-5" x1="132.3" y1="323.96" x2="145.81" y2="323.96"/>
    <line class="cls-6" x1="136.2" y1="125.64" x2="136.2" y2="108.42"/>
    <line class="cls-6" x1="131.55" y1="125.64" x2="131.55" y2="108.42"/>
    <line class="cls-6" x1="127.05" y1="125.64" x2="127.05" y2="108.42"/>
    <line class="cls-6" x1="140.85" y1="125.67" x2="140.85" y2="108.45"/>
    <line class="cls-6" x1="389" y1="108.45" x2="389" y2="125.67"/>
    <line class="cls-6" x1="393.65" y1="108.45" x2="393.65" y2="125.67"/>
    <line class="cls-6" x1="398.14" y1="108.45" x2="398.14" y2="125.67"/>
    <line class="cls-6" x1="384.35" y1="108.42" x2="384.35" y2="125.64"/>
    <polyline class="cls-6" points="263.38 129.53 237.75 129.53 237.75 107.45 274.42 107.45 274.42 129.53 270.66 129.53"/>
    <rect class="cls-6" x="145.54" y="108.09" width="92.2" height="17.86"/>
    <rect class="cls-6" x="113.73" y="200.68" width="17.86" height="58.41"/>
    <rect class="cls-6" x="113.73" y="125.96" width="17.86" height="58.2"/>
    <rect class="cls-6" x="392.96" y="200.68" width="17.86" height="58.41"/>
    <rect class="cls-6" x="392.96" y="125.98" width="17.86" height="58.19"/>
    <line class="cls-7" x1="145.57" y1="117.23" x2="127.02" y2="117.23"/>
    <line class="cls-7" x1="379.62" y1="116.86" x2="398.17" y2="116.86"/>
    <rect class="cls-8" x="274.39" y="108.09" width="105.29" height="17.86"/>
    <line class="cls-9" x1="392.68" y1="169" x2="411.51" y2="169"/>
    <line class="cls-9" x1="392.68" y1="154.2" x2="411.51" y2="154.2"/>
    <line class="cls-9" x1="392.68" y1="140.14" x2="411.51" y2="140.14"/>
    <line class="cls-10" x1="432.77" y1="323.36" x2="441.51" y2="340.47"/>
    <rect class="cls-11" x="113.76" y="108.11" width="31.76" height="17.86"/>
    <rect class="cls-11" x="379.67" y="108.11" width="31.77" height="17.87"/>
  </g>
  <g id="colors">
    <rect class="cls-12" x="167.72" y="259.2" width="30.73" height="18.38"/>
    <rect class="cls-13" x="198.6" y="263.29" width="15.98" height="36.88"/>
    <rect class="cls-14" x="228.16" y="380.97" width="21.79" height="11.2"/>
    <rect class="cls-15" x="307.3" y="413.43" width="12.16" height="20.86"/>
    <rect class="cls-16" x="150.73" y="309.21" width="220.3" height="71.67"/>
    <rect class="cls-16" x="123.75" y="399.66" width="183.95" height="32.95"/>
    <rect class="cls-17" x="139.57" y="259.47" width="21.69" height="40.28"/>
    <rect class="cls-18" x="356.31" y="389.91" width="20.52" height="25.14"/>
    <polygon class="cls-18" points="354.47 390.13 332.63 390.13 332.63 405.18 321.27 405.19 321.27 424.25 354.53 424.25 354.47 390.13"/>
    <rect class="cls-19" x="143.16" y="141.41" width="235.43" height="55.18"/>
    <rect class="cls-20" x="412.08" y="298.72" width="56.98" height="33.31"/>
    <rect class="cls-16" x="228.7" y="208.58" width="71.7" height="90.68"/>
    <rect class="cls-21" x="57.52" y="299.93" width="63.27" height="33.31"/>
  </g>
  <g id="symbols">
    <text class="cls-22" transform="translate(309.78 428.83) scale(1 1.01)">E</text>
    <text class="cls-23" transform="translate(236.36 389.82) scale(1 1.01)">E</text>
    <text class="cls-22" transform="translate(202.77 276.87) scale(1 1.01)">E</text>
    <text class="cls-22" transform="translate(202.77 294.96) scale(1 1.01)">E</text>
    <text class="cls-24" transform="translate(337.02 412.41) scale(1 1.01)">W</text>
    <text class="cls-24" transform="translate(143.95 284.18) scale(1 1.01)">W</text>
    <text class="cls-24" transform="translate(359.96 409.34) scale(1 1.01)">M</text>
    <text class="cls-24" transform="translate(179.79 272.27) scale(1 1.01)">M</text>
    <text class="cls-25" transform="translate(299.79 420.17)">S</text>
    <g id="O">
      <circle class="cls-26" cx="359.96" cy="243.86" r="6.78" onclick="switchInfo('O1', '');"/>
      <circle class="cls-26" cx="275.83" cy="426.43" r="6.78" onclick="switchInfo('O3', '');"/>
      <circle class="cls-26" cx="172.98" cy="259.09" r="6.78" onclick="switchInfo('O2', '');"/>
    </g>
    <g id="X">
      <polygon class="cls-27" points="255.91 203.79 253.67 201.55 258.64 196.59 253.67 191.62 255.91 189.38 260.88 194.35 265.84 189.38 268.08 191.62 263.11 196.59 268.08 201.55 265.84 203.79 260.88 198.65 255.91 203.79" onclick="switchInfo('X1', '');"/>
    </g>
    <text class="cls-25" transform="translate(216.69 284.82)">S</text>
  </g>
  <g id="text">
    <g class="cls-28">
      <text class="cls-29" transform="translate(484.43 482.05) rotate(-90)">F<tspan class="cls-30" x="18.88" y="0">R</tspan><tspan class="cls-31" x="38.5" y="0">ON</tspan><tspan class="cls-32" x="81.38" y="0">T</tspan><tspan class="cls-33" x="100.4" y="0"> </tspan><tspan class="cls-31" x="115.06" y="0">W</tspan><tspan class="cls-32" x="138.85" y="0">I</tspan><tspan class="cls-31" x="154.36" y="0">N</tspan><tspan class="cls-34" x="175.58" y="0">G</tspan></text>
    </g>
    <text class="cls-35" transform="translate(427.66 268.23) rotate(-90)"><tspan class="cls-36">B</tspan><tspan class="cls-37" x="19.65" y="0">A</tspan><tspan class="cls-36" x="40.03" y="0">CK</tspan><tspan class="cls-38" x="79.84" y="0"> </tspan><tspan class="cls-36" x="94.5" y="0">W</tspan><tspan class="cls-32" x="118.29" y="0">I</tspan><tspan class="cls-36" x="133.8" y="0">N</tspan><tspan x="155.02" y="0">G</tspan></text>
    <text class="cls-39" transform="translate(58.44 55)"><tspan class="cls-40">M</tspan><tspan x="14.58" y="0">cKeldin - </tspan><tspan class="cls-41" x="83.18" y="0">F</tspan><tspan x="91.64" y="0">loor 3</tspan></text>
    <text class="cls-42" transform="translate(323.82 275.49) scale(1 1.01)">&lt;</text>
    <text class="cls-42" transform="translate(275.3 166.71) scale(1 1.01)">EAST ASIA</text>
    <text class="cls-42" transform="translate(264.98 185.96) scale(1 1.01)">COLLECTION</text>
    <text class="cls-42" transform="translate(152.47 166.58) scale(1 1.01)">PERIODICAL</text>
    <text class="cls-42" transform="translate(153.24 185.83) scale(1 1.01)">STACKS A-G</text>
    <text class="cls-42" transform="translate(160.79 233.49) scale(1 1.01)">DF</text>
    <text class="cls-42" transform="translate(183.28 233.49) scale(1 1.01)">—</text>
    <text class="cls-42" transform="translate(192.71 233.49) scale(1 1.01)">&gt;</text>
    <text class="cls-42" transform="translate(205.84 233.49) scale(1 1.01)">E</text>
    <text class="cls-42" transform="translate(307.67 233.49) scale(1 1.01)">E</text>
    <text class="cls-42" transform="translate(319.27 233.49) scale(1 1.01)">—</text>
    <text class="cls-42" transform="translate(328.71 233.49) scale(1 1.01)">&gt;</text>
    <text class="cls-42" transform="translate(341.84 233.49) scale(1 1.01)">F</text>
    <text class="cls-42" transform="translate(303.13 275.49) scale(1 1.01)">FC</text>
    <text class="cls-42" transform="translate(325.63 275.49) scale(1 1.01)">—</text>
    <text class="cls-42" transform="translate(346.38 275.49) scale(1 1.01)">F</text>
    <text class="cls-43" transform="translate(67.02 314.63)"><tspan class="cls-44">STU</tspan><tspan class="cls-45" x="22.92" y="0">D</tspan><tspan class="cls-44" x="32.2" y="0">Y</tspan><tspan x="39.78" y="0"> </tspan></text>
    <text class="cls-43" transform="translate(63.26 328.38)"><tspan class="cls-46">LOUNG</tspan><tspan x="43.48" y="0">E</tspan></text>
    <text class="cls-42" transform="translate(172.98 352.3) scale(1 1.01)">B</text>
    <text class="cls-42" transform="translate(185.73 352.3) scale(1 1.01)">—</text>
    <text class="cls-42" transform="translate(195.16 352.3) scale(1 1.01)">&gt;</text>
    <text class="cls-42" transform="translate(208.29 352.3) scale(1 1.01)">BT</text>
    <text class="cls-42" transform="translate(287.96 352.3) scale(1 1.01)">BT</text>
    <text class="cls-42" transform="translate(308.73 352.3) scale(1 1.01)">—</text>
    <text class="cls-42" transform="translate(318.16 352.3) scale(1 1.01)">&gt;</text>
    <text class="cls-42" transform="translate(331.29 352.3) scale(1 1.01)">DE</text>
    <text class="cls-42" transform="translate(128.43 415.47) scale(1 1.01)">B</text>
    <text class="cls-42" transform="translate(141.11 415.47) scale(1 1.01)">—</text>
    <text class="cls-42" transform="translate(160.92 415.47) scale(1 1.01)">A</text>
    <text class="cls-47" transform="translate(182.67 415.47) scale(1 1.01)">F</text>
    <text class="cls-47" transform="translate(194.08 415.47) scale(1 1.01)">—</text>
    <text class="cls-47" transform="translate(213.89 415.47) scale(1 1.01)">A FOLIO</text>
    <text class="cls-42" transform="translate(139.3 415.47) scale(1 1.01)">&lt;</text>
    <text class="cls-47" transform="translate(192.27 415.47) scale(1 1.01)">&lt;</text>
    <text class="cls-43" transform="translate(407.92 350.38)"><tspan class="cls-48">Gr</tspan><tspan class="cls-49" x="13.65" y="0">a</tspan><tspan class="cls-48" x="20.41" y="0">duat</tspan><tspan x="47.46" y="0">e</tspan></text>
    <text class="cls-43" transform="translate(412.08 364.13)"><tspan class="cls-46">Studen</tspan><tspan x="42.01" y="0">t</tspan></text>
    <text class="cls-43" transform="translate(418.67 377.88)"><tspan class="cls-46">Stud</tspan><tspan x="27.21" y="0">y</tspan></text>
    <text class="cls-50" transform="translate(422.2 391.63)">Are<tspan class="cls-51" x="20.21" y="0">a</tspan></text>
  </g>
  <g id="KEY">
    <text class="cls-39" transform="translate(458 55)"><tspan class="cls-40">M</tspan><tspan x="14.58" y="0">ap Key</tspan></text>
    <rect class="cls-19" x="459.53" y="93.62" width="15.3" height="15.3"/>
    <rect class="cls-52" x="459.53" y="120.59" width="15.3" height="15.3"/>
    <rect class="cls-16" x="459.53" y="67.52" width="15.3" height="15.3"/>
    <rect class="cls-53" x="459.53" y="147.43" width="15.3" height="15.3"/>
    <text class="cls-54" transform="translate(481.59 77.59)">Easily <tspan class="cls-55" x="35.32" y="0">A</tspan><tspan class="cls-56" x="43.72" y="0">cc</tspan><tspan x="56.1" y="0">essible</tspan></text>
    <text class="cls-54" transform="translate(481.59 103.68)">Not Easily <tspan class="cls-55" x="59.82" y="0">A</tspan><tspan class="cls-56" x="68.22" y="0">cc</tspan><tspan x="80.6" y="0">essible</tspan></text>
    <text class="cls-54" transform="translate(481.59 130.65)"><tspan class="cls-57">R</tspan><tspan x="7.59" y="0">esou</tspan><tspan class="cls-58" x="35.55" y="0">r</tspan><tspan class="cls-56" x="39.98" y="0">c</tspan><tspan x="46.17" y="0">es</tspan></text>
    <text class="cls-25" transform="translate(464.14 158.73)">E</text>
    <text class="cls-54" transform="translate(481.59 157.5)">Ele<tspan class="cls-59" x="17.21" y="0">va</tspan><tspan class="cls-56" x="30.58" y="0">t</tspan><tspan class="cls-60" x="35.13" y="0">or</tspan></text>
    <text class="cls-54" transform="translate(481.59 184.34)"><tspan class="cls-57">R</tspan><tspan x="7.59" y="0">est</tspan><tspan class="cls-58" x="24.78" y="0">r</tspan><tspan x="29.22" y="0">oom</tspan></text>
    <rect class="cls-61" x="459.53" y="174.28" width="15.28" height="15.28"/>
    <rect class="cls-62" x="465.64" y="177.27" width="3.08" height="3.08" rx="1.54" ry="1.54"/>
    <polygon class="cls-62" points="464.84 186.53 467.18 178.81 469.52 186.53 464.84 186.53"/>
    <rect class="cls-62" x="464.46" y="180.35" width="5.43" height="0.89"/>
    <text class="cls-25" transform="translate(464.14 212.4)">S</text>
    <text class="cls-54" transform="translate(481.59 211.17)">Clear Si<tspan class="cls-56" x="42.91" y="0">g</tspan><tspan x="50.65" y="0">nage</tspan></text>
    <text class="cls-54" transform="translate(481.59 238.02)"><tspan class="cls-63">G</tspan><tspan x="9.11" y="0">ood No</tspan><tspan class="cls-56" x="52.25" y="0">t</tspan><tspan x="56.8" y="0">e</tspan></text>
    <text class="cls-54" transform="translate(481.59 264.86)">Bad No<tspan class="cls-56" x="42.1" y="0">t</tspan><tspan x="46.65" y="0">e</tspan></text>
    <circle class="cls-26" cx="467.17" cy="235.6" r="6.78"/>
    <polygon class="cls-27" points="462.21 269.65 459.98 267.41 464.94 262.44 459.98 257.48 462.21 255.24 467.18 260.21 472.15 255.24 474.38 257.48 469.42 262.44 474.38 267.41 472.15 269.65 467.18 264.5 462.21 269.65"/>
  </g>
</svg>
