<svg xmlns="http://www.w3.org/2000/svg" xmlns:xlink="http://www.w3.org/1999/xlink" viewBox="0 0 648 648">
  <script xlink:href="./index.js" />
  <defs>
    <style>
      .cls-1, .cls-10, .cls-11, .cls-12, .cls-13, .cls-14, .cls-2, .cls-3, .cls-4, .cls-5, .cls-6, .cls-7, .cls-8, .cls-9 {
        fill: none;
      }

      .cls-10, .cls-11, .cls-12, .cls-13, .cls-14, .cls-2, .cls-3, .cls-4, .cls-5, .cls-6, .cls-7, .cls-8, .cls-9 {
        stroke: #231f20;
      }

      .cls-2 {
        stroke-width: 4.95px;
      }

      .cls-3 {
        stroke-width: 0.83px;
      }

      .cls-4 {
        stroke-width: 0.83px;
      }

      .cls-5 {
        stroke-width: 0.84px;
      }

      .cls-6 {
        stroke-width: 0.89px;
      }

      .cls-7 {
        stroke-width: 0.82px;
      }

      .cls-8 {
        stroke-width: 0.85px;
      }

      .cls-9 {
        stroke-width: 1.62px;
      }

      .cls-10 {
        stroke-width: 1.72px;
      }

      .cls-11 {
        stroke-width: 1.74px;
      }

      .cls-12 {
        stroke-width: 1.68px;
      }

      .cls-13 {
        stroke-width: 0.81px;
      }

      .cls-14 {
        stroke-width: 0.86px;
      }

      .cls-15, .cls-19, .cls-20, .cls-23, .cls-27, .cls-58 {
        fill: #666;
      }

      .cls-15, .cls-16, .cls-17, .cls-18, .cls-19, .cls-20, .cls-23, .cls-24, .cls-49, .cls-50, .cls-58 {
        stroke: #000;
      }

      .cls-15, .cls-16, .cls-17, .cls-18, .cls-19, .cls-20, .cls-23, .cls-24, .cls-30, .cls-49, .cls-50, .cls-58 {
        stroke-miterlimit: 10;
      }

      .cls-15 {
        stroke-width: 0.4px;
      }

      .cls-15, .cls-19, .cls-20, .cls-22, .cls-23, .cls-58 {
        opacity: 0.3;
      }

      .cls-16, .cls-17, .cls-18, .cls-28, .cls-30, .cls-50 {
        fill: #0060ff;
      }

      .cls-16 {
        stroke-width: 0.49px;
      }

      .cls-16, .cls-17, .cls-18, .cls-50 {
        opacity: 0.4;
      }

      .cls-17 {
        stroke-width: 0.46px;
      }

      .cls-18 {
        stroke-width: 0.51px;
      }

      .cls-19 {
        stroke-width: 0.56px;
      }

      .cls-20 {
        stroke-width: 0.43px;
      }

      .cls-21, .cls-29 {
        fill: red;
      }

      .cls-21, .cls-24, .cls-49 {
        opacity: 0.2;
      }

      .cls-22 {
        fill: #00caff;
      }

      .cls-23 {
        stroke-width: 0.42px;
      }

      .cls-24, .cls-49 {
        fill: #ff0;
      }

      .cls-24 {
        stroke-width: 0.36px;
      }

      .cls-25, .cls-27 {
        font-size: 13.43px;
      }

      .cls-25, .cls-26 {
        fill: blue;
      }

      .cls-25, .cls-26, .cls-27 {
        font-family: MyriadPro-Bold, Myriad Pro;
        font-weight: 700;
      }

      .cls-26 {
        font-size: 10.75px;
      }

      .cls-30 {
        font-size: 12px;
        stroke: #0060ff;
      }

      .cls-30, .cls-50 {
        stroke-width: 0.5px;
      }

      .cls-30, .cls-32, .cls-38, .cls-42, .cls-45, .cls-46, .cls-47, .cls-48, .cls-51 {
        font-family: MyriadPro-Regular, Myriad Pro;
      }

      .cls-31 {
        clip-path: url(#clip-path);
      }

      .cls-32, .cls-38 {
        font-size: 13.63px;
      }

      .cls-32, .cls-38, .cls-46, .cls-47, .cls-48 {
        fill: #231f20;
      }

      .cls-32 {
        letter-spacing: 0.9em;
      }

      .cls-33 {
        letter-spacing: 0.9em;
      }

      .cls-34 {
        letter-spacing: 0.9em;
      }

      .cls-35 {
        letter-spacing: 0.9em;
      }

      .cls-36 {
        letter-spacing: 0.86em;
      }

      .cls-37 {
        letter-spacing: 0em;
      }

      .cls-39 {
        letter-spacing: 0.9em;
      }

      .cls-40 {
        letter-spacing: 0.88em;
      }

      .cls-41 {
        letter-spacing: 0.86em;
      }

      .cls-42 {
        font-size: 18px;
      }

      .cls-43 {
        letter-spacing: 0.01em;
      }

      .cls-44 {
        letter-spacing: -0.02em;
      }

      .cls-45 {
        font-size: 16.2px;
      }

      .cls-46 {
        font-size: 18.9px;
      }

      .cls-47 {
        font-size: 17.55px;
      }

      .cls-48 {
        font-size: 13.5px;
      }

      .cls-49 {
        stroke-width: 0.21px;
      }

      .cls-51 {
        font-size: 14px;
      }

      .cls-52 {
        letter-spacing: -0.01em;
      }

      .cls-53 {
        letter-spacing: -0.01em;
      }

      .cls-54 {
        letter-spacing: 0em;
      }

      .cls-55 {
        letter-spacing: -0.01em;
      }

      .cls-56 {
        letter-spacing: 0em;
      }

      .cls-57 {
        letter-spacing: 0em;
      }

      .cls-58 {
        stroke-width: 0.15px;
      }

      .cls-59 {
        fill: #989898;
      }

      .cls-60 {
        letter-spacing: 0em;
      }

      #O, #X {
        cursor: pointer;
      }
    </style>
    <clipPath id="clip-path">
      <rect class="cls-1" x="42.84" y="94.38" width="444.18" height="441.41"/>
    </clipPath>
  </defs>
  <title>mck-floor7</title>
  <g id="lines">
    <polygon class="cls-2" points="56.04 298.46 119.26 298.46 119.26 261.16 112.44 261.1 112.44 106.17 412.98 106.17 412.98 298.46 470.22 298.46 470.22 485.35 56.04 485.35 56.04 298.46"/>
    <line class="cls-3" x1="185.12" y1="126.36" x2="185.12" y2="107.53"/>
    <line class="cls-3" x1="171.78" y1="126.36" x2="171.78" y2="107.53"/>
    <line class="cls-3" x1="158.45" y1="126.36" x2="158.45" y2="107.53"/>
    <line class="cls-3" x1="225.13" y1="126.36" x2="225.13" y2="107.53"/>
    <line class="cls-3" x1="211.79" y1="126.36" x2="211.79" y2="107.53"/>
    <line class="cls-3" x1="198.46" y1="126.36" x2="198.46" y2="107.53"/>
    <line class="cls-3" x1="327.07" y1="126.36" x2="327.07" y2="107.53"/>
    <line class="cls-3" x1="313.74" y1="126.36" x2="313.74" y2="107.53"/>
    <line class="cls-3" x1="300.4" y1="126.36" x2="300.4" y2="107.53"/>
    <line class="cls-3" x1="367.08" y1="126.36" x2="367.08" y2="107.53"/>
    <line class="cls-3" x1="353.75" y1="126.36" x2="353.75" y2="107.53"/>
    <line class="cls-3" x1="340.41" y1="126.36" x2="340.41" y2="107.53"/>
    <line class="cls-3" x1="287.47" y1="126.36" x2="287.47" y2="107.53"/>
    <line class="cls-3" x1="112.6" y1="243.86" x2="131.43" y2="243.86"/>
    <line class="cls-3" x1="112.6" y1="229.01" x2="131.43" y2="229.01"/>
    <line class="cls-3" x1="112.6" y1="214.9" x2="131.43" y2="214.9"/>
    <line class="cls-3" x1="112.6" y1="168.94" x2="131.43" y2="168.94"/>
    <line class="cls-3" x1="112.6" y1="154.09" x2="131.43" y2="154.09"/>
    <line class="cls-3" x1="112.6" y1="139.98" x2="131.43" y2="139.98"/>
    <line class="cls-3" x1="392.68" y1="243.86" x2="411.51" y2="243.86"/>
    <line class="cls-3" x1="392.68" y1="229.01" x2="411.51" y2="229.01"/>
    <line class="cls-3" x1="392.68" y1="214.9" x2="411.51" y2="214.9"/>
    <line class="cls-4" x1="136.2" y1="125.64" x2="136.2" y2="108.42"/>
    <line class="cls-4" x1="131.55" y1="125.64" x2="131.55" y2="108.42"/>
    <line class="cls-4" x1="127.05" y1="125.64" x2="127.05" y2="108.42"/>
    <line class="cls-4" x1="140.85" y1="125.67" x2="140.85" y2="108.45"/>
    <line class="cls-4" x1="389" y1="108.45" x2="389" y2="125.67"/>
    <line class="cls-4" x1="393.65" y1="108.45" x2="393.65" y2="125.67"/>
    <line class="cls-4" x1="398.14" y1="108.45" x2="398.14" y2="125.67"/>
    <line class="cls-4" x1="384.35" y1="108.42" x2="384.35" y2="125.64"/>
    <polyline class="cls-4" points="263.38 129.53 237.75 129.53 237.75 107.45 274.42 107.45 274.42 129.53 270.66 129.53"/>
    <rect class="cls-4" x="145.54" y="108.09" width="92.2" height="17.86"/>
    <rect class="cls-4" x="113.73" y="200.68" width="17.86" height="58.41"/>
    <rect class="cls-4" x="113.73" y="125.96" width="17.86" height="58.2"/>
    <rect class="cls-4" x="392.96" y="200.68" width="17.86" height="58.41"/>
    <rect class="cls-4" x="392.96" y="125.98" width="17.86" height="58.19"/>
    <line class="cls-5" x1="145.57" y1="117.23" x2="127.02" y2="117.23"/>
    <line class="cls-5" x1="379.62" y1="116.86" x2="398.17" y2="116.86"/>
    <rect class="cls-6" x="274.39" y="108.09" width="105.29" height="17.86"/>
    <line class="cls-7" x1="392.68" y1="169" x2="411.51" y2="169"/>
    <line class="cls-7" x1="392.68" y1="154.2" x2="411.51" y2="154.2"/>
    <line class="cls-7" x1="392.68" y1="140.14" x2="411.51" y2="140.14"/>
    <rect class="cls-8" x="113.76" y="108.11" width="31.76" height="17.86"/>
    <rect class="cls-8" x="379.67" y="108.11" width="31.77" height="17.87"/>
    <line class="cls-9" x1="173.29" y1="447.3" x2="219.73" y2="447.3"/>
    <line class="cls-9" x1="105.9" y1="447.3" x2="165.2" y2="447.3"/>
    <polyline class="cls-10" points="255.9 447.41 231.79 447.41 231.79 485.5"/>
    <line class="cls-9" x1="280.72" y1="447.46" x2="280.72" y2="483.53"/>
    <line class="cls-10" x1="189.75" y1="447.46" x2="189.75" y2="485.5"/>
    <line class="cls-10" x1="263.97" y1="446.49" x2="263.97" y2="484.73"/>
    <polyline class="cls-9" points="247.54 381.31 247.54 378 230.78 378 230.78 389.67 247.54 389.67 247.54 386.7"/>
    <line class="cls-9" x1="360.56" y1="447.37" x2="403.46" y2="447.37"/>
    <line class="cls-9" x1="312.1" y1="447.37" x2="353.33" y2="447.37"/>
    <line class="cls-9" x1="272.11" y1="447.37" x2="304.96" y2="447.37"/>
    <polyline class="cls-9" points="410.77 300.96 400.79 300.96 400.84 384.35 465.82 384.35"/>
    <polyline class="cls-11" points="469.16 485.35 411.22 485.35 411.22 411.55 470.22 411.55"/>
    <polyline class="cls-9" points="121.74 299.13 121.74 378.19 56.86 378.19"/>
    <polyline class="cls-12" points="56.04 412.23 104.68 412.23 104.68 448.12"/>
    <line class="cls-9" x1="115.92" y1="441.9" x2="115.92" y2="447.45"/>
    <polyline class="cls-9" points="105.69 412.23 115.92 412.23 115.92 435.99"/>
    <line class="cls-9" x1="171.42" y1="301.05" x2="266.63" y2="301.05"/>
    <polyline class="cls-9" points="178.6 279.8 193.95 279.8 206.55 279.8"/>
    <line class="cls-9" x1="169.54" y1="301.86" x2="169.54" y2="278.99"/>
    <line class="cls-9" x1="223.49" y1="288.49" x2="223.52" y2="277.54"/>
    <polyline class="cls-9" points="223.52 270.67 223.53 265.4 206.32 265.4 206.25 301.06 223.46 301.06 223.49 295.24"/>
    <line class="cls-9" x1="179.21" y1="260.71" x2="224.19" y2="260.71"/>
    <line class="cls-9" x1="206.33" y1="283.47" x2="223.97" y2="283.47"/>
    <polyline class="cls-9" points="169.53 272.68 169.53 260.63 146.06 260.63 146.06 301.06 171.96 301.06"/>
    <line class="cls-9" x1="179.44" y1="259.9" x2="179.44" y2="272.68"/>
    <line class="cls-9" x1="206.32" y1="259.89" x2="206.32" y2="266.13"/>
    <line class="cls-9" x1="223.53" y1="259.89" x2="223.53" y2="266.13"/>
    <polyline class="cls-9" points="305.7 423.82 305.7 430.91 318.23 430.91 318.23 409.93 305.7 409.93 305.7 417.41"/>
    <line class="cls-9" x1="305.7" y1="397.11" x2="305.7" y2="409.93"/>
    <polyline class="cls-9" points="343.67 386.82 305.7 386.82 305.7 392.31"/>
    <polyline class="cls-9" points="318.24 409.99 318.24 430.92 352.42 430.92 352.42 386.81 349.22 386.81"/>
    <polyline class="cls-9" points="358.94 386.81 374.29 386.81 374.29 413.02 351.68 413.02"/>
    <line class="cls-9" x1="305.69" y1="402.41" x2="330.4" y2="402.41"/>
    <polyline class="cls-9" points="352.42 430.92 374.29 430.92 374.29 413.02"/>
    <line class="cls-12" x1="56.14" y1="447.3" x2="119.75" y2="447.3"/>
    <line class="cls-13" x1="201.27" y1="456.8" x2="219.7" y2="456.8"/>
    <line class="cls-13" x1="201.27" y1="471.48" x2="219.7" y2="471.48"/>
    <line class="cls-14" x1="204.53" y1="447.98" x2="204.53" y2="485.03"/>
    <line class="cls-14" x1="208.45" y1="447.98" x2="208.45" y2="485.03"/>
    <line class="cls-14" x1="212.37" y1="447.98" x2="212.37" y2="485.03"/>
    <line class="cls-14" x1="216.28" y1="447.98" x2="216.28" y2="485.03"/>
    <line class="cls-13" x1="131.52" y1="320.13" x2="144.78" y2="320.13"/>
    <line class="cls-13" x1="131.37" y1="315.22" x2="145.19" y2="315.22"/>
    <rect class="cls-13" x="131.26" y="311.04" width="13.67" height="17.71"/>
    <line class="cls-13" x1="138" y1="328.56" x2="138" y2="311.04"/>
    <line class="cls-13" x1="131.49" y1="324.38" x2="144.76" y2="324.38"/>
    <line class="cls-13" x1="375.7" y1="320.13" x2="388.97" y2="320.13"/>
    <line class="cls-13" x1="375.56" y1="315.22" x2="389.38" y2="315.22"/>
    <rect class="cls-13" x="375.45" y="311.04" width="13.67" height="17.71"/>
    <line class="cls-13" x1="382.19" y1="328.56" x2="382.19" y2="311.04"/>
    <line class="cls-13" x1="375.68" y1="324.38" x2="388.94" y2="324.38"/>
    <line class="cls-13" x1="196.78" y1="280.57" x2="196.78" y2="301.22"/>
    <line class="cls-13" x1="201.69" y1="280.34" x2="201.69" y2="301.51"/>
    <rect class="cls-13" x="188.16" y="280.16" width="17.72" height="21.3"/>
    <line class="cls-13" x1="188.34" y1="290.65" x2="205.87" y2="290.65"/>
    <line class="cls-13" x1="192.53" y1="280.53" x2="192.53" y2="301.18"/>
    <line class="cls-13" x1="323.75" y1="387.63" x2="323.75" y2="401.86"/>
    <line class="cls-13" x1="327.13" y1="387.47" x2="327.13" y2="402.3"/>
    <rect class="cls-13" x="317.81" y="387.35" width="12.2" height="14.68"/>
    <line class="cls-13" x1="317.94" y1="394.58" x2="330.01" y2="394.58"/>
    <line class="cls-13" x1="320.82" y1="387.6" x2="320.82" y2="401.83"/>
    <line class="cls-13" x1="410.97" y1="402.33" x2="419.45" y2="402.33"/>
    <line class="cls-13" x1="410.87" y1="397.43" x2="419.72" y2="397.43"/>
    <rect class="cls-13" x="410.81" y="393.25" width="8.74" height="17.71"/>
    <line class="cls-13" x1="410.95" y1="406.58" x2="419.43" y2="406.58"/>
  </g>
  <g id="colors">
    <rect class="cls-15" x="179.48" y="261.56" width="26.83" height="18.38"/>
    <rect class="cls-16" x="206.29" y="265.03" width="16.82" height="36.88"/>
    <rect class="cls-17" x="230.79" y="377.9" width="16.74" height="11.89"/>
    <rect class="cls-18" x="305.76" y="409.97" width="12.41" height="19.97"/>
    <rect class="cls-19" x="146.16" y="260.89" width="23.25" height="40.83"/>
    <rect class="cls-20" x="352.72" y="387.29" width="20.84" height="25.57"/>
    <rect class="cls-21" x="147.26" y="145.31" width="231.33" height="53.34"/>
    <rect class="cls-21" x="147.16" y="204.42" width="88.96" height="51.08"/>
    <rect class="cls-22" x="150.73" y="309.21" width="220.3" height="66.97"/>
    <rect class="cls-21" x="119.75" y="389.78" width="133.92" height="42.83"/>
    <rect class="cls-22" x="243.35" y="208.58" width="33.96" height="71.7"/>
    <rect class="cls-21" x="286.04" y="204.99" width="88.96" height="75.83"/>
    <polygon class="cls-23" points="351.67 387.59 330.04 387.59 330.04 402.5 305.7 402.5 305.7 409.95 318.79 410 318.79 430.92 351.73 430.92 351.67 387.59"/>
    <rect class="cls-24" x="280.72" y="447.46" width="130.5" height="38.03"/>
  </g>
  <g id="symbols">
    <text class="cls-25" transform="translate(307.84 424.89) scale(1 1.01)">E</text>
    <text class="cls-26" transform="translate(236.89 388) scale(1 1.01)">E</text>
    <text class="cls-25" transform="translate(211.55 279.71) scale(1 1.01)">E</text>
    <text class="cls-25" transform="translate(211.7 297.62) scale(1 1.01)">E</text>
    <text class="cls-27" transform="translate(329.24 419.96) scale(1 1.01)">W</text>
    <text class="cls-27" transform="translate(152.69 290.48) scale(1 1.01)">W</text>
    <text class="cls-27" transform="translate(357.83 405.88) scale(1 1.01)">M</text>
    <text class="cls-27" transform="translate(189.39 276.18) scale(1 1.01)">M</text>
    <g id="O">
      <circle class="cls-28" cx="283.97" cy="428.74" r="6.78" onclick="switchInfo('O2', '');"/>
      <circle class="cls-28" cx="274.39" cy="342.7" r="6.78" onclick="switchInfo('O1', '');"/>
    </g>
    <g id="X">
      <polygon class="cls-29" points="255.91 203.79 253.67 201.55 258.64 196.59 253.67 191.62 255.91 189.38 260.88 194.35 265.84 189.38 268.08 191.62 263.11 196.59 268.08 201.55 265.84 203.79 260.88 198.65 255.91 203.79" onclick="switchInfo('X2', '');"/>
      <polygon class="cls-29" points="363.22 222.98 360.98 220.75 365.94 215.78 360.98 210.81 363.22 208.58 368.18 213.54 373.15 208.58 375.38 210.81 370.42 215.78 375.38 220.75 373.15 222.98 368.18 217.84 363.22 222.98" onclick="switchInfo('X3', '');"/>
      <polygon class="cls-29" points="160.23 133.18 158 130.94 162.96 125.98 158 121.01 160.23 118.77 165.2 123.74 170.17 118.77 172.4 121.01 167.44 125.98 172.4 130.94 170.17 133.18 165.2 128.03 160.23 133.18" onclick="switchInfo('X1', '');"/>
    </g>
    <text class="cls-30" transform="translate(224.27 286.05)">S</text>
  </g>
  <g id="text">
    <g class="cls-31">
      <text class="cls-32" transform="translate(484.43 482.05) rotate(-90)">F<tspan class="cls-33" x="18.88" y="0">R</tspan><tspan class="cls-34" x="38.5" y="0">ON</tspan><tspan class="cls-35" x="81.38" y="0">T</tspan><tspan class="cls-36" x="100.4" y="0"> </tspan><tspan class="cls-34" x="115.06" y="0">W</tspan><tspan class="cls-35" x="138.85" y="0">I</tspan><tspan class="cls-34" x="154.36" y="0">N</tspan><tspan class="cls-37" x="175.58" y="0">G</tspan></text>
    </g>
    <text class="cls-38" transform="translate(427.66 268.23) rotate(-90)"><tspan class="cls-39">B</tspan><tspan class="cls-40" x="19.65" y="0">A</tspan><tspan class="cls-39" x="40.03" y="0">CK</tspan><tspan class="cls-41" x="79.84" y="0"> </tspan><tspan class="cls-39" x="94.5" y="0">W</tspan><tspan class="cls-35" x="118.29" y="0">I</tspan><tspan class="cls-39" x="133.8" y="0">N</tspan><tspan x="155.02" y="0">G</tspan></text>
    <text class="cls-42" transform="translate(58.44 55)"><tspan class="cls-43">M</tspan><tspan x="14.58" y="0">cKeldin - </tspan><tspan class="cls-44" x="83.18" y="0">F</tspan><tspan x="91.64" y="0">loor 7</tspan></text>
    <text class="cls-45" transform="translate(126.75 430.58)">FOLIO ZA</text>
    <text class="cls-45" transform="translate(194.45 429.24)">—</text>
    <text class="cls-45" transform="translate(212.27 430.58)">PQ6000</text>
    <text class="cls-46" transform="translate(92.63 402.41)">PQ</text>
    <text class="cls-46" transform="translate(118.31 401.46)">—</text>
    <text class="cls-46" transform="translate(139.1 402.41)">PQ6000</text>
    <text class="cls-47" transform="translate(150.23 170.06)">PERIODICAL STACKS</text>
    <text class="cls-46" transform="translate(179.05 188.96)">PQ6000</text>
    <text class="cls-46" transform="translate(243.44 187.62)">—</text>
    <text class="cls-46" transform="translate(252.89 187.62)">&gt;</text>
    <text class="cls-46" transform="translate(266.05 188.96)">Z</text>
    <text class="cls-46" transform="translate(315.75 179.1)">BOOKS</text>
    <text class="cls-46" transform="translate(303.92 363.97)">P</text>
    <text class="cls-46" transform="translate(314.49 363.97)">R</text>
    <text class="cls-46" transform="translate(327.13 363.97)">—</text>
    <text class="cls-46" transform="translate(336.58 363.97)">&gt;</text>
    <text class="cls-46" transform="translate(349.74 363.97)">PS</text>
    <text class="cls-46" transform="translate(168.64 237.66)">P</text>
    <text class="cls-46" transform="translate(179.2 237.66)">T</text>
    <text class="cls-46" transform="translate(191.01 237.66)">—</text>
    <text class="cls-46" transform="translate(200.46 237.66)">&gt;</text>
    <text class="cls-46" transform="translate(213.62 237.66)">R</text>
    <text class="cls-46" transform="translate(303.68 237.66)">R</text>
    <text class="cls-46" transform="translate(316.32 237.66)">—</text>
    <text class="cls-46" transform="translate(325.77 237.66)">&gt;</text>
    <text class="cls-46" transform="translate(338.92 237.66)">T</text>
    <text class="cls-46" transform="translate(184.44 334.37)">PT</text>
    <text class="cls-46" transform="translate(204.92 334.37)">&lt;</text>
    <text class="cls-46" transform="translate(206.74 334.37)">—</text>
    <text class="cls-46" transform="translate(227.53 334.37)">PS</text>
    <text class="cls-46" transform="translate(178.84 364.48)">P</text>
    <text class="cls-46" transform="translate(189.41 364.48)">Q</text>
    <text class="cls-46" transform="translate(204.6 364.48)">—</text>
    <text class="cls-46" transform="translate(214.05 364.48)">&gt;</text>
    <text class="cls-46" transform="translate(226.26 364.48)">PR</text>
    <text class="cls-46" transform="translate(304.26 334.37)">PS</text>
    <text class="cls-46" transform="translate(277.96 275.57)">Z695.83</text>
    <text class="cls-46" transform="translate(345.58 275.57)">—</text>
    <text class="cls-46" transform="translate(366.37 275.57)">T</text>
    <text class="cls-45" transform="translate(192.9 429.77)">&lt;</text>
    <text class="cls-46" transform="translate(116.5 401.59)">&lt;</text>
    <text class="cls-46" transform="translate(343.76 275.57)">&lt;</text>
    <text class="cls-48" transform="translate(287.19 471.19)">Human Resources</text>
  </g>
  <g id="KEY">
    <text class="cls-42" transform="translate(458 55)"><tspan class="cls-43">M</tspan><tspan x="14.58" y="0">ap Key</tspan></text>
    <rect class="cls-21" x="459.53" y="93.62" width="15.3" height="15.3"/>
    <rect class="cls-49" x="459.53" y="120.59" width="15.3" height="15.3"/>
    <rect class="cls-22" x="459.53" y="67.52" width="15.3" height="15.3"/>
    <rect class="cls-50" x="459.53" y="147.43" width="15.3" height="15.3"/>
    <text class="cls-51" transform="translate(481.59 77.59)">Easily <tspan class="cls-52" x="35.32" y="0">A</tspan><tspan class="cls-53" x="43.72" y="0">cc</tspan><tspan x="56.1" y="0">essible</tspan></text>
    <text class="cls-51" transform="translate(481.59 103.68)">Not Easily <tspan class="cls-52" x="59.82" y="0">A</tspan><tspan class="cls-53" x="68.22" y="0">cc</tspan><tspan x="80.6" y="0">essible</tspan></text>
    <text class="cls-51" transform="translate(481.59 130.65)"><tspan class="cls-54">R</tspan><tspan x="7.59" y="0">esou</tspan><tspan class="cls-55" x="35.55" y="0">r</tspan><tspan class="cls-53" x="39.98" y="0">c</tspan><tspan x="46.17" y="0">es</tspan></text>
    <text class="cls-30" transform="translate(464.14 158.73)">E</text>
    <text class="cls-51" transform="translate(481.59 157.5)">Ele<tspan class="cls-56" x="17.21" y="0">va</tspan><tspan class="cls-53" x="30.58" y="0">t</tspan><tspan class="cls-57" x="35.13" y="0">or</tspan></text>
    <text class="cls-51" transform="translate(481.59 184.34)"><tspan class="cls-54">R</tspan><tspan x="7.59" y="0">est</tspan><tspan class="cls-55" x="24.78" y="0">r</tspan><tspan x="29.22" y="0">oom</tspan></text>
    <rect class="cls-58" x="459.53" y="174.28" width="15.28" height="15.28"/>
    <rect class="cls-59" x="465.64" y="177.27" width="3.08" height="3.08" rx="1.54" ry="1.54"/>
    <polygon class="cls-59" points="464.84 186.53 467.18 178.81 469.52 186.53 464.84 186.53"/>
    <rect class="cls-59" x="464.46" y="180.35" width="5.43" height="0.89"/>
    <text class="cls-30" transform="translate(464.14 212.4)">S</text>
    <text class="cls-51" transform="translate(481.59 211.17)">Clear Si<tspan class="cls-53" x="42.91" y="0">g</tspan><tspan x="50.65" y="0">nage</tspan></text>
    <text class="cls-51" transform="translate(481.59 238.02)"><tspan class="cls-60">G</tspan><tspan x="9.11" y="0">ood No</tspan><tspan class="cls-53" x="52.25" y="0">t</tspan><tspan x="56.8" y="0">e</tspan></text>
    <text class="cls-51" transform="translate(481.59 264.86)">Bad No<tspan class="cls-53" x="42.1" y="0">t</tspan><tspan x="46.65" y="0">e</tspan></text>
    <circle class="cls-28" cx="467.17" cy="235.6" r="6.78"/>
    <polygon class="cls-29" points="462.21 269.65 459.98 267.41 464.94 262.44 459.98 257.48 462.21 255.24 467.18 260.21 472.15 255.24 474.38 257.48 469.42 262.44 474.38 267.41 472.15 269.65 467.18 264.5 462.21 269.65"/>
  </g>
</svg>
